<?xml version="1.0" standalone="no"?>
<!DOCTYPE svg PUBLIC "-//W3C//DTD SVG 20010904//EN"
 "http://www.w3.org/TR/2001/REC-SVG-20010904/DTD/svg10.dtd">
<svg version="1.0" xmlns="http://www.w3.org/2000/svg"
 width="1024.000000pt" height="1024.000000pt" viewBox="0 0 1024.000000 1024.000000"
 preserveAspectRatio="xMidYMid meet">
<metadata>
Created by potrace 1.16, written by Peter Selinger 2001-2019
</metadata>
<g transform="translate(0.000000,1024.000000) scale(0.100000,-0.100000)"
fill="#000000" stroke="none">
<path d="M6562 9903 c-5 -16 -10 -44 -11 -63 0 -19 -9 -52 -18 -73 -13 -31
-15 -45 -6 -67 6 -16 7 -30 2 -32 -4 -2 -16 -32 -25 -68 -9 -36 -25 -82 -35
-102 -24 -48 -24 -56 1 -27 l20 24 -5 -30 c-2 -16 -14 -48 -25 -70 -11 -21
-20 -45 -20 -53 0 -7 -9 -30 -20 -52 -11 -22 -22 -53 -23 -69 -2 -16 -10 -38
-18 -47 -12 -16 -12 -17 2 -12 13 5 15 -2 13 -45 -5 -90 -96 -310 -126 -304
-6 1 -17 -9 -25 -23 -11 -22 -13 -22 -13 -5 1 21 26 60 38 60 16 -1 61 81 58
107 -2 19 1 25 10 21 9 -3 15 3 16 16 0 12 1 27 2 34 1 6 3 14 6 17 6 6 30 73
30 83 0 4 -7 7 -15 7 -18 0 -39 -73 -29 -103 6 -19 5 -20 -9 -9 -12 10 -17 10
-23 1 -4 -8 -3 -9 4 -5 7 4 12 2 12 -3 0 -6 -6 -11 -13 -11 -19 0 -42 -41 -27
-50 9 -5 9 -9 1 -14 -6 -4 -11 -2 -11 3 0 27 -18 5 -50 -62 -19 -39 -34 -74
-34 -77 0 -3 -6 -11 -13 -18 -7 -7 -13 -27 -13 -43 0 -16 -4 -29 -9 -29 -5 0
-32 -47 -60 -104 -28 -57 -58 -107 -66 -110 -8 -3 -15 -13 -15 -22 0 -32 -53
-124 -71 -124 -10 0 -21 -5 -25 -11 -5 -8 -10 -6 -16 5 -5 9 -13 14 -19 11 -5
-4 -9 1 -9 9 0 20 9 20 32 -1 10 -9 18 -11 18 -5 0 10 -103 85 -178 128 -60
35 -192 157 -192 178 -1 6 -25 36 -55 66 -47 47 -55 52 -55 33 0 -12 11 -34
25 -49 14 -15 25 -31 25 -35 0 -14 132 -149 145 -149 7 0 18 -15 24 -32 6 -18
31 -51 54 -73 23 -22 49 -49 57 -59 14 -18 13 -19 -7 -14 -13 4 -21 2 -20 -5
3 -15 -59 -27 -74 -13 -9 8 -10 8 -4 -3 6 -11 4 -13 -8 -8 -40 16 -52 19 -38
9 7 -5 10 -15 7 -21 -5 -7 4 -11 24 -11 18 0 33 -6 36 -15 4 -8 13 -15 22 -15
22 0 7 -12 -20 -16 -35 -5 -121 -38 -136 -51 -16 -15 -48 -17 -57 -4 -3 5 7
11 22 13 16 2 23 6 17 10 -6 4 -24 0 -40 -8 -35 -19 -84 -26 -84 -13 0 5 5 9
10 9 6 0 10 7 10 15 0 11 -12 7 -47 -15 -26 -17 -58 -39 -70 -50 -13 -11 -23
-15 -23 -10 0 12 -36 -5 -58 -27 -7 -7 -20 -13 -28 -13 -8 0 -44 -13 -79 -30
-68 -32 -91 -37 -79 -19 6 11 -22 76 -42 94 -16 14 -25 45 -14 45 6 0 10 9 10
20 0 29 -22 70 -33 63 -6 -3 -7 -1 -4 4 4 6 4 39 0 73 -3 34 -9 56 -13 50 -12
-19 -19 11 -8 32 5 11 5 25 -1 35 -12 21 -25 74 -22 87 1 4 -4 25 -11 45 -7
20 -13 50 -14 66 0 17 -6 57 -12 89 -7 33 -12 85 -12 115 0 31 -5 73 -11 95
-8 27 -8 41 0 45 6 4 12 16 14 26 2 11 8 28 12 39 5 12 3 21 -6 26 -16 11 -38
-35 -43 -91 -2 -21 -9 -46 -16 -54 -11 -13 -11 -20 0 -39 9 -18 10 -35 1 -75
-12 -58 -13 -103 -1 -56 l8 30 1 -27 c1 -18 -6 -31 -19 -38 -19 -10 -20 -7
-22 42 0 29 -1 60 0 68 1 8 3 45 4 82 1 36 6 64 11 61 5 -3 6 4 3 15 -8 25 9
103 25 112 6 4 9 13 5 19 -4 5 0 37 9 70 19 74 19 94 -1 59 -21 -40 -26 -34
-7 10 19 46 22 50 32 34 5 -8 14 10 26 48 10 33 16 62 13 65 -9 9 -70 -54 -63
-65 7 -12 -45 -139 -57 -140 -9 0 12 72 26 90 7 8 16 23 20 34 5 14 2 17 -10
12 -8 -3 -17 -6 -19 -6 -2 0 -13 -16 -25 -35 -14 -23 -20 -45 -17 -65 3 -16 2
-32 -3 -35 -6 -4 -20 -61 -25 -105 -6 -63 -18 -120 -25 -120 -4 0 -4 19 0 43
5 23 7 43 5 45 -6 6 -36 -101 -40 -144 -3 -25 -9 -52 -13 -60 -4 -8 -4 -40 0
-72 5 -31 11 -95 14 -142 4 -65 10 -89 23 -100 22 -19 18 -82 -5 -73 -15 6
-20 -22 -5 -31 5 -3 7 -16 4 -29 -4 -18 -3 -19 6 -7 6 8 11 10 11 5 0 -6 -5
-16 -11 -22 -6 -6 -11 -47 -12 -91 0 -49 -5 -78 -10 -75 -6 4 -8 -8 -4 -29 3
-20 1 -40 -3 -44 -5 -5 -10 -42 -12 -81 -2 -50 -7 -73 -15 -73 -20 0 -16 -10
12 -32 14 -11 25 -25 25 -33 0 -20 -24 -35 -40 -25 -12 8 -12 10 4 10 21 0 14
13 -9 16 -19 3 -19 -20 0 -40 19 -18 19 -27 2 -20 -10 4 -12 -3 -9 -27 3 -17
1 -34 -4 -38 -5 -3 -20 -26 -33 -51 l-23 -45 30 30 c16 17 27 34 24 39 -3 5 0
6 6 2 16 -10 15 -36 0 -36 -9 0 -8 -4 2 -11 12 -9 13 -12 1 -16 -26 -10 -116
-91 -114 -101 2 -6 -10 -20 -25 -31 -15 -12 -31 -24 -37 -28 -74 -57 -101 -76
-167 -117 -42 -26 -82 -55 -90 -64 -12 -15 -11 -16 5 -3 11 9 17 10 17 2 0
-10 -14 -15 -34 -12 -5 1 -18 -7 -30 -17 -11 -10 -47 -36 -80 -58 -32 -21 -74
-49 -92 -62 -19 -12 -34 -27 -34 -32 0 -6 -6 -10 -14 -10 -7 0 -16 -9 -19 -20
-3 -11 -10 -20 -17 -20 -6 0 -8 5 -5 10 8 14 -64 -27 -90 -50 -11 -10 -65 -49
-120 -87 -278 -193 -342 -238 -370 -261 -88 -72 -122 -100 -155 -129 -21 -18
-42 -33 -48 -33 -7 0 -19 -11 -27 -24 -9 -13 -43 -45 -77 -72 -77 -61 -188
-169 -188 -184 0 -6 -8 -9 -18 -6 -15 5 -21 -2 -32 -36 -7 -24 -17 -47 -22
-52 -4 -6 -8 -20 -8 -32 0 -13 -4 -26 -10 -29 -5 -3 -10 -1 -10 4 0 15 -22 9
-38 -9 -11 -13 -12 -12 -8 5 3 11 1 27 -5 35 -9 12 -10 12 -5 -3 3 -11 3 -24
-1 -30 -4 -7 -9 -20 -10 -30 -2 -14 1 -17 16 -12 24 7 35 -9 18 -27 -8 -7 -19
-24 -26 -36 -14 -26 -38 -24 -33 2 2 9 1 16 -2 16 -7 0 -23 -64 -31 -120 -15
-114 -27 -179 -40 -222 -8 -29 -10 -50 -4 -53 5 -4 9 3 9 14 0 12 5 21 11 21
6 0 9 -6 6 -14 -3 -8 -9 -31 -13 -50 -3 -20 -9 -36 -13 -36 -4 0 -8 -6 -8 -12
-1 -37 -28 -138 -46 -171 -16 -28 -36 -45 -84 -67 -35 -17 -67 -30 -72 -30 -6
0 -13 -5 -17 -12 -4 -7 -3 -8 4 -4 7 4 12 2 12 -3 0 -6 -7 -11 -15 -11 -8 0
-15 -7 -15 -15 0 -13 5 -13 40 1 22 9 47 13 56 10 9 -3 31 3 49 14 28 17 33
26 30 49 -3 19 3 35 14 45 18 16 19 15 25 -9 4 -17 2 -33 -6 -43 -10 -12 -10
-14 0 -8 6 4 12 3 12 -3 0 -5 -5 -13 -10 -16 -6 -4 -8 -11 -5 -16 4 -5 -3 -9
-14 -9 -28 0 -90 -32 -91 -47 0 -7 -9 -13 -19 -13 -11 0 -23 -5 -26 -11 -4 -5
-37 -24 -73 -41 -37 -16 -98 -48 -137 -71 -38 -22 -92 -52 -120 -67 -27 -14
-59 -30 -70 -36 -11 -6 -49 -25 -85 -43 -36 -17 -78 -39 -95 -49 -103 -63
-214 -121 -231 -122 -14 0 -40 -30 -27 -30 5 0 14 5 21 12 9 9 12 9 12 0 0 -6
-9 -16 -19 -22 -11 -5 -26 -23 -34 -40 -13 -26 -13 -30 -1 -30 8 0 14 4 14 10
0 5 6 7 13 4 7 -2 22 4 32 16 10 11 24 20 31 20 8 0 21 11 30 25 9 14 23 25
30 25 8 0 23 9 34 20 39 39 19 41 -35 5 -20 -15 -40 -24 -43 -21 -3 3 -11 1
-18 -5 -8 -7 -14 -7 -19 0 -3 6 7 14 22 17 15 4 41 15 58 25 36 20 89 37 65
20 -12 -9 -9 -10 13 -9 26 2 35 12 20 21 -5 2 -2 2 6 0 7 -2 19 2 27 8 7 6 75
42 151 81 76 38 145 76 153 83 8 7 24 15 35 19 11 3 43 21 70 39 28 17 99 56
158 86 60 29 111 60 114 67 3 8 9 11 14 8 5 -3 31 7 58 22 54 31 92 81 71 94
-8 5 -7 9 4 13 9 4 16 18 16 34 1 64 70 362 99 425 35 78 51 92 51 48 0 -39
16 -31 23 12 9 54 12 64 32 94 11 16 19 34 17 39 -1 6 15 31 36 57 95 120 169
206 200 233 19 17 57 50 84 75 72 64 261 210 273 210 13 0 212 140 265 188 47
41 145 103 253 159 16 9 26 17 24 20 -3 2 -19 -3 -36 -11 -17 -9 -34 -16 -37
-15 -4 0 -10 -4 -13 -9 -3 -5 -21 -17 -39 -26 -32 -16 -33 -16 -23 1 6 10 26
36 45 58 l34 40 -6 -30 c-4 -25 -3 -28 9 -19 8 6 43 33 79 60 36 27 72 56 80
64 8 8 33 28 55 45 22 16 43 34 47 39 5 7 8 7 8 1 0 -6 3 -5 8 1 4 6 22 19 39
28 27 14 32 14 27 1 -3 -8 -14 -17 -25 -20 -10 -4 -19 -12 -19 -18 -1 -12
-134 -122 -177 -145 -12 -7 -23 -17 -23 -22 0 -18 134 71 202 134 143 132 180
161 231 180 28 10 56 25 60 32 4 8 12 14 17 14 5 0 44 21 86 47 53 33 79 44
82 35 3 -10 7 -10 18 -1 8 6 11 16 7 22 -3 5 -1 7 5 3 6 -3 14 -1 17 5 4 6 17
8 30 5 15 -4 28 0 36 11 13 15 12 15 -8 4 -13 -6 -23 -9 -23 -7 0 9 73 43 118
55 23 7 42 16 42 22 0 6 -8 6 -21 -1 -42 -23 -42 -2 1 26 75 48 90 54 83 38
-4 -11 2 -10 26 3 17 10 31 21 31 26 0 4 6 7 14 7 8 0 55 27 106 61 50 33 95
58 98 54 4 -4 2 -10 -5 -12 -18 -7 -153 -103 -153 -109 0 -12 56 9 113 42 32
19 65 34 73 34 7 0 14 7 14 16 0 8 4 12 10 9 10 -6 105 59 130 90 14 17 13 18
-2 12 -10 -3 -18 -2 -18 4 0 6 14 8 36 5 20 -4 33 -2 30 3 -3 5 6 12 21 16 22
5 24 8 12 17 -11 8 -11 9 3 4 11 -3 43 12 84 40 36 25 68 43 71 40 3 -2 -7
-12 -21 -21 -14 -10 -26 -25 -26 -35 0 -19 -48 -60 -70 -60 -6 0 -31 -20 -56
-45 -25 -26 -58 -48 -75 -52 -16 -3 -35 -13 -42 -23 -7 -9 -31 -29 -53 -44
-23 -15 -63 -47 -89 -71 -26 -24 -54 -41 -61 -38 -8 3 -14 -1 -14 -10 0 -17
-24 -29 -44 -21 -13 5 -62 -12 -111 -39 -11 -6 -32 -17 -48 -25 -28 -14 -29
-36 0 -25 37 14 -23 -45 -62 -62 -22 -9 -59 -26 -83 -36 -24 -11 -48 -16 -54
-13 -7 4 -8 3 -4 -4 11 -18 -4 -38 -15 -21 -8 12 -10 12 -18 0 -5 -7 -15 -11
-22 -9 -18 6 82 101 132 125 22 10 39 21 39 24 0 10 -54 -3 -62 -15 -4 -6 -12
-12 -18 -12 -5 -1 -14 -2 -18 -3 -5 0 -18 -10 -30 -21 -23 -21 -32 -14 -10 8
23 23 -5 12 -37 -15 -52 -44 -78 -63 -88 -63 -4 0 -6 -9 -2 -19 3 -11 0 -23
-6 -27 -9 -5 -10 -2 -6 9 9 24 0 21 -43 -13 -20 -16 -40 -26 -44 -23 -9 10
-57 -43 -54 -59 2 -7 -4 -13 -13 -13 -9 0 -27 -8 -40 -18 -13 -10 -39 -26 -56
-37 -18 -11 -33 -24 -33 -30 0 -17 17 -11 34 13 12 15 16 17 12 5 -6 -22 3
-23 29 -4 11 7 25 15 30 16 23 4 128 65 132 77 3 7 9 11 13 8 5 -3 14 0 22 7
7 7 31 22 52 33 36 18 49 44 19 37 -19 -4 -16 18 4 25 10 4 19 1 21 -6 2 -7
15 -17 29 -22 20 -8 35 -4 72 17 25 15 82 45 126 66 44 22 94 53 113 69 18 16
43 29 55 29 28 0 161 67 177 89 3 4 21 18 40 31 19 13 49 38 66 56 16 17 50
40 75 51 24 11 51 28 59 38 14 17 13 17 -10 10 -20 -6 -18 -2 14 24 40 32 67
42 46 16 -18 -21 -3 -19 38 7 20 12 30 24 23 26 -9 3 -9 7 0 18 6 8 15 11 20
9 4 -3 15 7 23 22 8 15 33 46 55 67 l41 40 -13 -33 c-6 -18 -25 -45 -42 -60
-38 -34 -78 -82 -52 -62 12 9 17 10 17 2 0 -6 -7 -14 -15 -17 -17 -7 -21 -34
-5 -34 6 0 10 -7 10 -15 0 -9 6 -12 16 -8 14 5 16 2 9 -23 -4 -16 -13 -54 -20
-84 -9 -42 -14 -50 -19 -35 -4 11 -12 28 -17 38 -12 22 -2 57 20 75 9 8 10 11
4 7 -9 -4 -13 2 -14 17 -1 17 -3 18 -6 6 -2 -10 -8 -18 -12 -18 -15 0 -11 -90
4 -114 9 -13 13 -31 9 -40 -3 -9 -2 -16 4 -16 6 0 13 6 15 13 3 7 6 5 6 -5 1
-10 -4 -18 -9 -18 -6 0 -10 -8 -8 -17 2 -12 -2 -17 -12 -15 -12 3 -13 1 -2 -9
6 -7 11 -31 11 -53 -1 -23 -4 -31 -6 -19 -6 32 -30 36 -36 7 -2 -14 -2 -22 1
-19 7 7 42 -51 42 -70 0 -8 5 -15 10 -15 6 0 10 8 10 18 0 14 2 15 10 2 6 -9
5 -17 -2 -21 -13 -8 44 -104 66 -112 11 -4 10 2 -1 34 -7 22 -21 51 -29 65 -9
13 -12 24 -7 24 11 0 52 -86 77 -164 9 -26 21 -57 26 -67 6 -10 6 -20 1 -23
-5 -3 -12 6 -15 20 -4 15 -9 24 -12 22 -6 -7 17 -68 26 -68 15 0 32 29 24 42
-5 7 -9 19 -11 27 -1 8 -6 17 -11 20 -20 14 -83 223 -65 220 23 -4 25 3 5 17
-18 13 -22 25 -22 72 0 53 2 58 23 59 19 2 20 1 5 -8 -10 -6 -18 -15 -18 -20
0 -6 5 -7 11 -3 8 4 9 -1 5 -17 -4 -18 -2 -16 8 5 l13 30 8 -24 c4 -13 15 -32
25 -42 17 -19 18 -19 28 9 10 27 10 27 10 3 -1 -14 2 -43 6 -65 l6 -40 -15 34
c-20 42 -31 34 -15 -13 6 -21 16 -33 24 -30 6 2 17 -8 23 -23 l11 -28 2 30 c1
17 2 58 2 93 0 35 2 61 5 59 3 -3 17 -67 31 -143 15 -75 32 -139 39 -141 7 -3
10 4 7 19 -4 21 -4 21 4 3 16 -37 23 -77 12 -70 -23 14 -4 -37 48 -127 11 -20
18 -39 15 -42 -4 -3 -1 -6 5 -6 7 0 12 7 12 15 0 8 -4 15 -10 15 -5 0 -10 7
-10 15 0 18 19 20 25 3 2 -7 16 -51 31 -98 15 -47 31 -103 35 -125 8 -38 8
-37 4 10 -2 28 -12 78 -23 110 -11 33 -28 86 -37 117 -10 32 -22 55 -27 52 -6
-4 -8 3 -3 17 5 18 4 20 -4 10 -7 -11 -9 -2 -8 32 1 26 3 47 4 47 7 0 32 -73
28 -80 -2 -4 2 -16 10 -26 14 -18 15 -17 9 9 -6 27 9 39 19 15 3 -7 6 -4 6 7
1 15 9 8 31 -27 16 -25 34 -49 39 -53 20 -12 11 33 -12 62 -13 15 -31 42 -40
58 -17 29 -17 28 12 -5 37 -41 41 -32 6 14 -14 18 -25 42 -25 54 0 11 -5 33
-10 48 -6 15 -8 35 -5 43 5 12 10 7 21 -18 8 -18 14 -40 14 -47 0 -8 11 -32
25 -54 14 -22 25 -46 25 -53 0 -8 15 -30 33 -49 17 -19 41 -51 52 -71 11 -20
23 -37 27 -37 4 0 19 -21 34 -47 15 -27 43 -68 62 -92 83 -103 113 -148 119
-174 3 -15 9 -30 13 -32 5 -3 18 -25 30 -50 12 -25 28 -45 37 -45 12 0 11 6
-5 33 -11 17 -29 49 -41 70 l-21 37 21 0 c15 0 19 -5 15 -16 -3 -8 4 -28 16
-44 l22 -30 19 55 c15 45 17 62 8 86 -6 17 -8 36 -5 41 4 6 3 13 -2 17 -5 3
-17 23 -27 44 -12 27 -22 37 -32 33 -8 -3 -15 -1 -15 3 0 5 5 11 10 13 31 10
-87 188 -124 188 -9 0 -18 10 -21 23 -4 12 -22 33 -40 47 -19 14 -37 33 -41
43 -3 10 -17 28 -31 42 -15 13 -27 32 -28 43 -2 26 -34 74 -44 67 -5 -2 -11 8
-14 23 -3 15 -11 47 -17 72 -6 25 -13 76 -15 113 -2 37 -7 72 -10 77 -4 6 -3
10 2 10 4 0 8 82 8 183 0 165 2 189 24 257 29 88 42 111 92 165 21 23 40 55
43 75 6 30 5 32 -5 15 -6 -11 -24 -32 -38 -46 -14 -15 -46 -59 -70 -98 -50
-81 -63 -89 -26 -15 14 27 23 55 20 62 -3 7 -1 11 3 8 8 -5 92 148 92 166 0 4
22 52 49 107 27 55 55 117 61 138 7 21 17 44 23 51 6 8 5 17 -3 27 -7 9 -10
18 -7 21 8 8 -16 33 -26 27 -4 -3 -1 12 7 32 9 21 16 39 16 41 0 2 8 4 18 4
13 0 14 -2 3 -9 -8 -5 -10 -14 -6 -21 5 -8 4 -11 -2 -7 -13 8 -26 -20 -17 -35
4 -6 16 6 26 26 14 27 16 41 9 50 -8 9 -3 32 17 82 15 38 30 71 34 72 5 2 8
10 8 18 0 8 7 29 16 47 17 31 17 31 25 9 5 -13 11 -33 14 -45 16 -77 27 -116
39 -147 8 -19 17 -47 20 -62 3 -15 15 -29 26 -33 11 -3 19 -9 19 -13 -1 -4 -1
-22 0 -40 1 -27 3 -31 14 -20 17 15 13 54 -7 77 -9 10 -16 22 -16 28 0 6 -6
13 -12 16 -10 3 -10 7 1 20 7 10 9 17 3 17 -5 0 -12 7 -16 15 -7 20 3 47 16
39 6 -4 8 2 6 12 -3 13 -11 18 -26 17 -12 -2 -22 3 -23 10 0 6 -2 21 -3 33 -1
11 3 26 11 32 10 10 12 7 9 -17 -2 -23 1 -31 18 -35 11 -3 23 0 27 6 4 6 13
-2 23 -21 10 -18 12 -31 6 -31 -6 0 -13 7 -16 15 -4 8 -9 15 -13 15 -11 0 -5
-51 7 -59 6 -3 9 -26 8 -53 -3 -35 1 -49 15 -62 11 -9 19 -24 19 -34 0 -10 5
-23 12 -30 9 -9 9 -12 -1 -12 -8 0 -2 -13 14 -31 14 -18 29 -44 32 -60 3 -15
10 -26 17 -25 6 2 8 1 4 -1 -11 -6 -10 -43 0 -43 5 0 14 -11 20 -25 10 -21 9
-25 -3 -25 -8 0 -15 7 -15 15 0 8 -4 15 -10 15 -11 0 -13 -11 -4 -34 3 -9 10
-13 15 -10 5 3 9 -6 9 -20 0 -14 5 -26 10 -26 6 0 10 7 10 15 0 22 13 18 29
-7 12 -19 11 -24 -6 -38 -18 -15 -19 -18 -5 -50 20 -46 28 -69 41 -105 10 -29
10 -28 6 9 -8 57 -16 89 -29 105 -9 12 -8 12 10 3 19 -10 45 -77 50 -127 2
-29 26 -95 32 -91 4 2 8 -41 9 -95 1 -54 0 -99 -3 -99 -9 0 -34 75 -29 89 6
21 -36 156 -56 179 -8 10 -14 23 -12 29 2 6 -2 17 -9 24 -7 8 -14 25 -16 39
-3 27 -28 70 -41 70 -11 0 42 -155 61 -178 25 -30 39 -70 25 -76 -9 -3 -9 -7
-1 -13 6 -4 11 -15 11 -23 0 -8 3 -33 7 -55 13 -86 15 -138 6 -156 -7 -11 -7
-33 -1 -58 7 -34 6 -40 -10 -44 -16 -4 -18 -9 -9 -31 5 -14 6 -27 1 -30 -4 -3
-6 -36 -4 -73 2 -41 -6 -123 -21 -208 -13 -77 -24 -123 -25 -102 -1 46 -20 40
-20 -6 1 -36 17 -213 25 -267 3 -19 7 -62 8 -95 5 -81 17 -146 26 -140 8 5 20
-42 20 -77 0 -38 -31 3 -77 102 -88 191 -118 249 -130 249 -6 1 -17 23 -24 51
-7 27 -15 47 -18 45 -3 -1 -7 9 -8 23 0 14 -8 31 -17 38 -9 6 -16 15 -16 20 0
12 -48 41 -100 59 -40 14 -86 7 -100 -15 -3 -5 -17 -12 -30 -14 -14 -2 -27 -5
-30 -6 -3 -2 -9 -2 -13 -1 -10 2 -41 -28 -35 -34 2 -2 23 3 47 11 23 8 47 12
52 8 15 -9 70 19 65 33 -3 7 -1 15 4 18 6 4 11 1 11 -4 1 -6 2 -17 3 -23 0 -7
8 -13 18 -13 9 0 39 -23 67 -52 53 -54 108 -160 162 -308 35 -96 47 -121 75
-160 12 -16 34 -55 49 -85 26 -50 27 -60 22 -145 -9 -138 -26 -242 -48 -298
-35 -88 -69 -256 -69 -336 1 -41 4 -79 6 -83 3 -5 1 -15 -5 -22 -11 -14 -27
-135 -16 -124 4 4 13 39 21 78 7 39 20 85 29 102 8 17 15 42 15 56 0 14 16 75
36 136 49 149 58 174 65 173 8 -3 39 30 39 40 0 14 52 117 63 124 5 4 6 25 2
48 -4 28 -3 47 5 56 10 12 9 15 -4 15 -18 0 -22 16 -5 22 5 2 11 26 11 54 1
39 -4 58 -20 79 -24 30 -28 45 -11 45 5 0 8 -4 5 -9 -3 -4 2 -16 12 -24 17
-15 19 -14 29 12 8 21 7 38 -3 67 -8 22 -14 52 -14 68 0 23 -3 27 -12 18 -7
-7 -15 -12 -18 -12 -7 0 -8 5 -13 57 -2 18 -6 36 -10 39 -3 4 -2 15 4 25 5 11
6 19 1 19 -5 0 -9 12 -10 28 -1 86 -5 132 -16 177 -7 28 -11 73 -10 100 9 177
12 214 18 224 4 6 7 26 6 44 -3 50 0 54 15 27 10 -18 14 -20 15 -8 0 9 -4 20
-10 23 -5 3 -10 16 -10 28 -1 12 -1 35 -1 52 -1 16 -6 33 -12 37 -9 6 -8 10 1
17 8 4 13 17 12 27 -4 33 0 45 10 39 6 -3 10 -21 10 -38 0 -40 10 -77 20 -77
11 0 4 75 -13 158 -8 34 -10 62 -5 62 4 0 8 27 8 61 0 79 15 68 30 -24 23
-149 29 -156 24 -27 -3 69 -10 130 -15 135 -7 7 -8 3 -4 -10 6 -19 6 -19 -8
-3 -7 10 -22 53 -31 95 -10 43 -22 92 -28 108 -15 46 -21 92 -10 80 13 -15 37
-90 57 -177 28 -124 33 -95 9 52 -3 19 -15 60 -26 90 -11 30 -20 61 -21 68 0
6 -4 12 -9 12 -5 0 -8 6 -7 13 2 13 -3 30 -32 95 -11 24 -19 48 -18 55 4 29
-3 45 -37 82 -21 22 -33 34 -29 26 5 -10 4 -12 -4 -7 -6 4 -9 12 -6 17 3 5 -6
29 -20 54 -33 56 -19 60 15 4 13 -22 26 -35 29 -28 2 6 0 14 -5 18 -10 7 -30
47 -94 186 -87 189 -132 275 -143 276 -7 1 -19 1 -28 0 -13 -1 -15 4 -11 26 3
15 7 22 9 16 10 -29 22 -10 18 26 -3 22 0 52 6 68 7 19 7 29 0 31 -6 2 -11 20
-11 40 0 34 1 35 17 20 14 -15 14 -20 3 -35 -12 -15 -12 -16 0 -5 21 18 27 16
60 -33 17 -25 36 -45 42 -45 6 0 -6 19 -26 43 -20 23 -45 54 -54 69 -9 16 -25
28 -34 28 -11 0 -18 7 -18 18 0 15 2 15 11 2 8 -12 9 -8 8 15 -4 56 0 68 18
61 15 -6 15 -4 -2 14 -18 20 -15 24 19 20 10 -1 16 3 12 8 -3 5 6 7 20 4 19
-3 39 -24 70 -73 24 -37 44 -70 44 -73 0 -3 8 -15 17 -26 10 -11 29 -41 43
-68 14 -26 68 -110 120 -187 51 -77 112 -167 134 -200 22 -33 43 -61 48 -63 4
-2 8 -8 8 -13 0 -20 70 -113 210 -279 36 -42 76 -92 90 -111 14 -19 49 -59 79
-89 52 -52 52 -53 9 -5 -24 28 -60 75 -80 105 -19 30 -54 75 -78 100 -23 25
-63 74 -88 110 -26 36 -63 87 -84 113 -21 27 -38 53 -38 58 0 6 -30 53 -66
105 -36 53 -68 103 -72 112 -3 10 -17 28 -30 41 -28 27 -102 139 -102 153 0 5
-12 27 -27 51 -15 23 -35 59 -45 79 -17 38 -92 153 -114 175 -7 7 -29 15 -50
18 -21 2 -43 10 -49 17 -12 14 -68 207 -64 224 8 41 -24 47 -39 7z m-1671
-1578 c2 -19 4 -25 14 -48 4 -10 5 -33 2 -52 -3 -19 -2 -35 2 -35 9 0 14 -33
15 -107 0 -35 4 -63 8 -63 4 0 9 6 9 13 3 35 0 128 -6 177 -18 131 -11 155 21
74 15 -36 17 -51 8 -43 -15 13 -19 -1 -5 -16 5 -6 26 -43 46 -84 32 -64 35
-77 25 -96 -16 -31 -48 -43 -88 -34 -27 5 -32 4 -28 -8 3 -7 -1 -16 -8 -19 -8
-3 -27 -23 -42 -45 -19 -28 -30 -37 -38 -29 -8 8 -7 13 3 19 8 5 10 14 6 21
-5 7 -9 34 -11 59 l-3 46 18 -55 c19 -62 29 -52 26 27 -1 29 2 50 7 47 4 -3 8
-26 8 -52 0 -31 3 -42 9 -33 9 14 6 137 -4 214 -4 29 -2 37 7 31 11 -6 11 -5
0 8 -17 21 -27 98 -13 98 6 0 12 -7 12 -15z m602 -251 c-12 -9 -34 -27 -48
-40 -27 -25 -52 -33 -39 -12 4 7 3 8 -5 4 -6 -4 -9 -11 -6 -15 5 -9 -77 -71
-95 -71 -6 0 -9 -4 -5 -9 5 -10 -45 -51 -62 -51 -6 0 -18 -9 -27 -19 -20 -22
-54 -33 -62 -20 -3 6 13 17 35 27 22 9 41 22 41 29 0 7 -7 10 -15 7 -8 -4 -15
-1 -15 5 0 6 -8 8 -17 5 -15 -5 -15 -4 -3 4 8 6 18 8 22 6 4 -3 8 -1 8 5 0 16
42 25 50 10 6 -9 23 -3 65 26 31 22 52 41 46 43 -5 2 -19 -6 -30 -17 -22 -22
-61 -29 -61 -11 0 5 7 7 16 3 10 -4 17 1 21 16 3 11 10 21 17 21 6 0 27 9 47
19 20 11 53 23 73 26 20 4 39 11 42 16 3 5 11 9 17 8 7 0 2 -7 -10 -15z m-503
-308 c0 -2 -27 -25 -61 -50 -34 -25 -55 -46 -47 -46 13 0 -11 -15 -84 -52 -37
-18 -52 -33 -23 -22 22 9 18 -14 -4 -26 -30 -16 -48 -12 -54 12 -7 25 31 79
51 73 6 -3 12 0 12 6 0 11 56 68 69 70 3 1 25 3 49 3 24 1 47 7 50 13 4 5 14
13 22 16 21 8 20 7 20 3z m-712 -416 c-7 -11 -18 -20 -24 -20 -7 0 -14 -7 -18
-15 -3 -8 -10 -15 -16 -15 -6 0 -8 5 -5 10 3 6 1 10 -4 10 -6 0 -11 -7 -11
-15 0 -20 33 -19 71 1 17 8 33 13 36 10 3 -3 -6 -10 -21 -16 -15 -5 -25 -14
-22 -18 2 -4 -10 -6 -27 -4 -23 2 -39 -4 -57 -20 -14 -13 -45 -39 -70 -58 -24
-19 -58 -47 -74 -62 -16 -15 -32 -25 -35 -22 -3 3 8 16 24 29 40 33 21 32 -22
-1 -20 -15 -41 -23 -50 -20 -14 6 -11 12 16 36 18 17 43 33 56 36 13 3 32 15
42 27 10 11 12 17 6 13 -19 -11 -15 2 7 24 14 14 29 19 46 16 15 -3 24 -2 20
1 -10 10 14 32 30 26 8 -3 14 1 14 10 0 12 30 27 62 31 4 1 13 7 20 14 18 18
20 15 6 -8z m-480 -342 c-3 -7 -14 -14 -26 -16 -12 -2 -22 -7 -22 -12 0 -19
-224 -160 -254 -160 -9 0 -16 -4 -16 -8 0 -4 -39 -35 -86 -68 -47 -32 -109
-80 -138 -107 -28 -26 -70 -59 -93 -73 -24 -14 -43 -32 -43 -40 0 -8 -9 -14
-21 -14 -11 0 -29 -5 -40 -10 -42 -23 -16 10 38 46 31 22 76 58 101 82 24 23
51 42 58 42 13 0 18 12 15 32 0 4 5 5 13 2 7 -3 19 3 27 12 12 16 12 17 -1 9
-13 -8 -13 -7 -1 9 8 9 20 15 27 12 8 -3 13 -2 13 2 -3 18 2 26 9 14 7 -9 14
-8 32 8 13 11 19 20 14 20 -6 0 -15 -5 -22 -12 -7 -7 -12 -8 -12 -2 0 13 30
32 145 93 33 18 67 39 76 47 8 8 20 14 26 14 6 0 34 16 63 35 29 19 63 35 76
35 13 0 24 5 24 10 0 6 5 10 11 10 6 0 9 -6 7 -12z m-98 -113 c-13 -14 -27
-25 -32 -25 -5 0 -21 -11 -36 -25 -15 -14 -32 -25 -39 -25 -7 0 -17 -9 -23
-20 -6 -11 -15 -18 -19 -16 -5 3 -17 -4 -27 -17 -11 -12 -12 -17 -4 -11 22 16
80 34 80 25 0 -4 -10 -13 -22 -20 -24 -12 -28 -14 -144 -93 -224 -153 -397
-311 -507 -463 -61 -86 -127 -164 -127 -152 0 7 98 171 131 218 10 15 15 29
13 32 -6 6 -54 -46 -72 -78 -7 -11 -12 -14 -12 -7 -1 38 98 150 127 144 7 -2
31 15 53 37 39 38 52 60 28 45 -7 -4 -8 -3 -4 4 4 6 12 9 19 6 13 -5 55 33 56
51 1 6 6 11 11 11 6 1 14 2 19 3 5 0 26 17 46 37 22 21 43 33 51 30 9 -3 12
-1 9 4 -3 5 11 24 31 42 32 29 402 286 413 287 3 1 -6 -10 -19 -24z"/>
<path d="M4907 9244 c-3 -3 -3 -12 -1 -19 3 -7 0 -24 -7 -36 -12 -23 -12 -23
-20 -4 -6 16 -8 12 -8 -15 -1 -25 5 -39 20 -48 11 -7 19 -21 18 -30 -3 -29 1
-42 11 -42 5 0 6 7 3 17 -4 11 -3 14 5 9 7 -4 12 -15 12 -24 0 -9 10 -33 22
-52 12 -19 22 -37 23 -40 0 -3 6 -15 13 -27 12 -22 11 -43 -2 -75 -11 -23 -3
-71 12 -76 6 -2 12 3 12 12 0 34 28 11 89 -74 35 -48 72 -91 82 -93 28 -8 23
9 -12 40 -50 44 -58 53 -101 109 -33 44 -38 56 -29 73 7 12 17 18 26 15 22 -9
19 6 -10 47 -13 20 -21 39 -18 43 4 3 1 6 -5 6 -7 0 -12 -7 -12 -15 0 -8 -6
-12 -15 -9 -8 3 -14 9 -13 12 2 10 -22 61 -51 107 -52 83 -61 108 -42 119 5 4
16 3 25 0 22 -9 86 -100 86 -124 0 -11 6 -20 14 -20 8 0 17 -7 20 -16 3 -8 2
-12 -4 -9 -15 9 -13 4 21 -64 17 -34 28 -68 25 -76 -3 -8 -1 -17 4 -20 5 -3
17 -23 27 -43 22 -48 212 -244 230 -238 7 3 13 2 13 -2 0 -4 9 -8 19 -8 11 0
17 4 15 8 -3 4 -10 8 -15 8 -12 0 -29 13 -82 63 -21 20 -43 37 -47 37 -5 0
-19 17 -31 38 -13 20 -27 38 -31 40 -4 2 -5 14 -2 27 3 12 1 26 -4 29 -6 4 -8
-3 -5 -16 4 -19 -1 -16 -34 16 -21 22 -40 49 -41 60 -7 86 -12 110 -21 119
-18 18 -13 25 14 19 34 -6 32 16 -1 29 -15 5 -24 12 -21 16 9 8 -11 43 -25 43
-7 0 -7 -4 1 -13 11 -14 6 -27 -10 -27 -4 0 -24 29 -43 63 -20 35 -45 72 -56
82 -11 10 -20 26 -20 37 0 18 -11 24 -23 12z"/>
<path d="M7327 8983 c10 -16 22 -31 27 -35 6 -4 8 -10 4 -13 -3 -3 5 -18 19
-33 28 -30 73 -97 73 -109 0 -5 -5 -1 -11 7 -9 13 -10 13 -6 0 2 -8 8 -14 13
-13 5 1 25 -12 44 -29 29 -25 31 -29 13 -25 -13 3 -23 3 -23 0 0 -10 34 -32
50 -33 19 -1 65 -39 56 -47 -3 -3 -15 2 -26 12 -11 10 -20 14 -20 8 0 -5 9
-18 20 -28 11 -10 20 -23 20 -30 0 -6 10 -20 23 -32 12 -11 42 -41 66 -67 24
-26 46 -45 48 -42 3 3 -18 30 -48 61 -56 59 -74 83 -66 92 3 2 8 -5 12 -16 6
-21 25 -29 25 -11 0 15 17 12 23 -4 4 -11 1 -13 -11 -9 -12 4 -10 -2 8 -22 24
-26 131 -93 138 -87 2 2 10 -5 18 -15 7 -10 14 -15 14 -11 0 5 32 -13 72 -38
80 -52 136 -66 157 -40 11 13 11 19 0 32 -15 18 -211 115 -272 134 -38 12
-118 69 -173 124 -17 17 -55 54 -84 81 -47 45 -72 76 -175 222 -33 47 -56 59
-28 16z"/>
<path d="M5144 8974 c4 -19 1 -24 -8 -21 -9 4 -16 -3 -19 -19 -2 -13 0 -24 4
-24 5 0 9 5 9 10 0 18 36 -22 70 -78 20 -33 38 -51 46 -48 13 5 64 -46 64 -64
0 -5 8 -11 18 -14 10 -3 25 -19 35 -35 17 -29 33 -49 89 -115 23 -25 27 -28
28 -12 0 14 8 8 33 -23 18 -22 57 -59 87 -81 30 -23 67 -55 83 -72 15 -18 27
-27 27 -20 0 6 7 9 18 5 11 -3 6 6 -13 24 -16 17 -33 29 -37 27 -6 -4 -47 29
-125 100 -23 21 -50 58 -59 82 -9 24 -21 44 -25 44 -12 0 -62 80 -66 104 -5
29 -11 31 -33 11 -20 -18 -21 -18 -45 5 -14 13 -25 29 -25 37 0 7 -4 13 -10
13 -15 0 -51 42 -67 80 -9 19 -31 52 -49 73 -33 36 -34 36 -30 11z"/>
<path d="M7820 8434 c0 -3 11 -20 25 -38 14 -18 25 -35 25 -39 0 -7 -22 -4
-37 6 -9 6 -11 3 -6 -10 5 -12 -6 -8 -35 15 -42 34 -60 31 -22 -3 11 -10 17
-22 13 -28 -3 -5 0 -7 8 -5 8 3 24 -4 37 -15 22 -21 32 -11 10 11 -7 7 -8 12
-4 12 12 0 76 -67 76 -79 0 -5 17 -36 38 -68 21 -32 51 -80 66 -108 l28 -50
-36 40 c-19 22 -35 46 -36 53 0 6 -6 12 -12 12 -13 0 -60 61 -71 93 -7 19 -15
21 -35 8 -10 -6 3 -25 50 -72 72 -74 98 -105 98 -118 0 -5 18 -32 39 -59 36
-45 38 -50 20 -55 -21 -6 -36 8 -17 16 8 3 6 6 -4 6 -21 1 -22 -3 -8 -29 6
-11 16 -17 23 -14 7 2 22 -4 32 -16 10 -11 15 -20 11 -20 -4 0 -1 -10 6 -22 7
-13 11 -27 10 -32 -2 -5 4 -16 13 -26 8 -9 18 -45 21 -82 5 -59 4 -67 -13 -70
-13 -2 -14 -6 -6 -11 8 -5 23 2 38 17 22 22 25 32 19 62 -5 29 -4 35 6 29 8
-5 7 1 -3 16 -9 13 -17 32 -17 41 0 19 -37 95 -77 161 -13 20 -21 37 -18 37 3
0 -12 35 -35 77 -41 79 -45 99 -10 68 11 -10 20 -13 20 -7 0 6 -10 17 -22 23
-32 17 -66 54 -83 92 -8 18 -19 39 -24 47 -5 8 -15 29 -22 45 -24 53 -79 115
-79 89z"/>
<path d="M8530 7828 c48 -19 122 -36 142 -30 20 5 66 -34 53 -46 -4 -4 -10 -1
-12 6 -8 22 -33 13 -33 -12 0 -15 -7 -26 -17 -29 -14 -4 -12 -5 5 -6 23 -1 31
-26 10 -33 -7 -3 -2 -7 10 -10 15 -4 22 -2 20 6 -2 6 3 18 11 27 13 13 17 12
39 -8 24 -23 69 -33 57 -13 -3 6 -12 10 -19 10 -16 0 -52 38 -44 46 4 3 19 -1
36 -10 21 -11 32 -12 40 -4 6 6 39 12 72 14 55 2 90 15 90 33 0 3 -53 6 -117
6 -99 0 -122 3 -146 19 -17 12 -50 20 -88 22 -33 2 -68 8 -79 14 -10 5 -27 10
-37 9 -13 0 -12 -3 7 -11z"/>
<path d="M7960 7545 c0 -2 5 -15 12 -29 9 -21 7 -39 -7 -92 -15 -55 -16 -67
-4 -75 8 -5 12 -21 11 -44 -3 -27 0 -35 13 -35 11 0 13 -4 8 -12 -4 -7 -8 -44
-8 -81 -1 -77 14 -87 47 -29 21 38 23 116 2 87 -19 -25 -28 -2 -39 98 -7 70
15 90 36 33 7 -19 16 -33 20 -30 4 2 19 -12 33 -33 36 -53 33 -18 -5 53 l-31
59 44 6 43 6 -37 1 c-38 2 -65 22 -29 22 20 0 20 1 4 20 -10 11 -18 26 -19 33
-3 32 -5 37 -15 37 -6 0 -9 -7 -6 -15 4 -8 2 -17 -3 -20 -6 -4 -10 4 -10 15 0
16 -4 20 -16 16 -8 -3 -12 -2 -9 4 3 6 -3 10 -14 10 -12 0 -21 -2 -21 -5z"/>
<path d="M7833 7268 c-19 -38 -35 -99 -29 -105 3 -4 6 -1 6 5 0 7 5 12 10 12
6 0 9 -6 8 -12 -2 -7 5 -12 15 -10 24 4 22 -15 -3 -23 -15 -5 -19 -12 -14 -29
7 -28 -42 -193 -65 -219 -28 -33 -66 -200 -58 -256 3 -20 10 -54 15 -76 l10
-40 1 52 c1 30 -4 53 -10 55 -13 4 5 106 26 148 7 14 16 45 20 69 5 28 17 53
33 68 16 15 25 34 26 56 1 18 9 41 19 51 9 10 17 28 17 42 0 17 6 24 19 24 21
0 26 -10 37 -75 4 -22 10 -44 14 -50 7 -10 17 -47 25 -93 7 -44 15 -36 15 16
0 28 -6 57 -12 64 -7 7 -14 33 -16 57 -1 25 -7 50 -13 57 -7 8 -6 14 1 19 6 4
8 15 5 25 -4 12 0 20 12 23 15 4 14 5 -4 6 -12 0 -24 -5 -27 -11 -3 -7 -4 0
-2 17 3 19 -2 33 -12 41 -15 11 -12 13 17 21 19 5 36 14 39 21 2 7 0 12 -5 11
-22 -6 -91 23 -99 42 -10 21 -10 21 -21 -3z"/>
<path d="M5860 7106 c0 -2 16 -46 36 -97 36 -95 69 -189 84 -244 5 -16 36
-102 69 -190 34 -88 63 -166 66 -174 3 -8 8 -11 11 -8 6 5 -48 173 -103 322
-17 44 -42 118 -58 165 -15 47 -38 110 -50 140 -13 30 -26 63 -29 73 -4 14
-26 25 -26 13z"/>
<path d="M4452 6560 c-93 -17 -144 -37 -63 -24 62 10 45 -10 -21 -24 -91 -20
-117 -22 -123 -13 -3 6 11 13 32 17 54 9 79 27 28 19 -22 -3 -71 -8 -110 -11
-89 -7 -157 -23 -148 -37 4 -6 -3 -8 -19 -5 -13 2 -30 -1 -36 -9 -7 -7 -18
-13 -25 -13 -7 0 -6 4 3 10 13 8 12 10 -2 10 -10 0 -18 -4 -18 -8 0 -5 -15 -7
-32 -6 -18 1 -35 -1 -38 -4 -6 -9 -92 -33 -139 -40 -23 -3 -29 -7 -20 -13 10
-6 4 -9 -16 -9 -17 0 -36 -5 -43 -12 -9 -9 -12 -7 -12 8 0 19 -4 20 -47 13
-27 -4 -70 -8 -98 -9 -54 0 -103 -20 -52 -20 24 0 26 -2 17 -19 -6 -12 -6 -22
-1 -25 5 -4 14 6 19 21 6 16 11 21 11 11 1 -15 5 -14 41 3 44 21 54 23 45 9
-3 -5 1 -10 10 -10 30 0 6 -17 -40 -29 -25 -6 -67 -25 -94 -41 -26 -17 -52
-30 -56 -30 -5 0 -19 -9 -31 -21 -12 -11 -31 -21 -42 -22 -11 0 -19 -4 -17 -8
3 -3 -20 -23 -50 -43 -58 -38 -76 -35 -25 5 16 13 30 30 30 36 0 7 11 15 24
19 16 4 23 11 19 20 -4 11 2 13 25 8 18 -4 32 -1 37 6 5 9 1 10 -15 5 l-22 -7
20 20 c25 25 58 36 67 22 11 -17 20 -11 21 15 2 21 -1 24 -12 14 -13 -11 -19
-2 -15 24 0 4 -4 7 -10 7 -18 0 -56 -45 -51 -61 4 -11 2 -11 -8 -2 -13 12 -43
6 -35 -7 3 -5 -4 -12 -16 -15 -13 -4 -18 -12 -15 -22 4 -10 1 -13 -13 -8 -13
4 -20 0 -24 -15 -3 -11 -10 -20 -17 -20 -6 0 -8 6 -4 13 4 6 -3 2 -15 -10 -11
-12 -21 -26 -21 -31 0 -5 -23 -27 -51 -50 -29 -23 -48 -42 -44 -42 4 0 -9 -19
-29 -42 -20 -24 -48 -58 -63 -77 -16 -18 -41 -45 -56 -59 -15 -14 -41 -48 -57
-74 -31 -50 -50 -61 -50 -29 0 29 -11 51 -25 51 -8 0 -11 -8 -8 -20 3 -11 10
-20 15 -20 6 0 8 -9 5 -20 -6 -22 13 -80 25 -80 4 0 27 18 49 40 61 59 62 39
2 -23 -28 -28 -50 -60 -50 -69 0 -21 2 -21 28 -8 16 9 21 7 27 -10 7 -20 11
-18 45 26 48 62 144 161 173 181 41 26 26 0 -28 -52 -29 -28 -51 -54 -50 -60
2 -5 1 -7 -3 -3 -10 9 -41 -22 -50 -50 -6 -22 -5 -22 16 -10 12 7 36 25 53 40
17 15 62 54 99 87 38 33 98 75 135 93 37 18 99 54 139 80 40 26 75 48 78 48
11 0 97 62 92 66 -7 7 -79 -30 -157 -81 -41 -27 -112 -68 -158 -90 -45 -23
-79 -44 -75 -49 4 -4 -1 -4 -11 0 -12 5 -17 4 -13 -2 3 -6 -3 -16 -14 -22 -19
-12 -19 -12 -5 16 8 16 30 35 48 42 18 8 45 26 59 42 14 15 29 25 33 21 4 -4
16 3 28 17 11 14 16 19 12 11 -4 -9 -2 -12 7 -9 8 3 13 10 12 15 -1 6 10 16
25 24 15 8 35 21 44 29 17 14 17 15 1 22 -14 5 -12 7 9 7 15 1 33 7 40 14 18
15 55 37 65 37 5 0 -8 -14 -27 -31 l-35 -30 35 18 c19 9 38 17 41 18 3 0 29
13 57 28 35 19 49 32 45 42 -3 8 0 15 7 15 6 0 8 -4 5 -10 -3 -5 1 -10 9 -10
9 0 16 4 16 8 0 4 8 8 18 8 9 1 26 5 37 9 41 16 -8 -22 -72 -56 -35 -18 -63
-37 -63 -42 0 -5 37 12 83 37 86 47 231 99 308 110 47 8 86 23 107 44 7 6 24
12 36 12 12 0 47 7 77 16 42 13 50 18 35 24 -12 4 -16 9 -9 13 6 4 18 5 25 2
8 -3 26 3 39 14 l24 20 -27 1 c-33 0 -45 16 -18 23 11 3 20 0 20 -6 0 -6 9 -1
21 12 11 12 33 24 49 28 19 3 27 10 23 19 -4 11 5 13 42 8 33 -4 45 -2 40 6
-4 6 -13 9 -21 6 -7 -3 -16 -1 -19 4 -4 6 0 10 7 11 7 0 4 4 -7 9 -19 7 -18 8
5 13 14 3 47 9 74 12 27 4 58 10 70 15 37 15 -61 9 -162 -10z"/>
<path d="M5708 6264 c-6 -5 14 -70 25 -80 4 -4 7 -14 7 -22 0 -9 6 -23 14 -31
15 -18 87 -178 90 -201 1 -8 12 -35 24 -60 12 -25 22 -52 22 -61 0 -9 11 -28
24 -42 13 -14 22 -28 19 -31 -3 -3 2 -12 11 -21 9 -9 16 -24 16 -32 0 -9 3
-13 6 -10 4 4 14 -8 23 -26 10 -18 23 -31 31 -29 8 2 12 1 8 -3 -8 -8 18 -70
46 -110 11 -16 20 -35 18 -41 -1 -6 5 -18 15 -25 11 -9 14 -10 9 -1 -4 6 -3
12 3 12 6 0 13 -12 16 -27 12 -56 28 -109 46 -150 11 -24 19 -48 19 -55 0 -6
8 -20 18 -31 13 -16 14 -19 2 -15 -8 2 -20 13 -25 24 -6 10 -29 37 -50 60 -31
30 -45 57 -59 110 -18 62 -49 130 -146 309 -56 104 -119 229 -131 260 -12 28
-13 29 -17 7 -2 -13 8 -42 23 -67 14 -25 24 -49 20 -54 -8 -14 5 -40 18 -35 7
2 30 -34 56 -88 62 -134 76 -161 98 -188 7 -9 19 -40 27 -70 8 -30 23 -90 35
-132 11 -42 18 -83 15 -92 -3 -8 6 -32 20 -55 14 -22 26 -43 26 -46 0 -4 12
-32 26 -63 15 -31 38 -82 52 -112 13 -30 40 -86 59 -124 33 -68 37 -98 8 -60
-14 18 -14 17 -4 -8 7 -15 15 -25 19 -23 5 3 11 -2 14 -11 3 -9 2 -12 -5 -9
-12 8 10 -44 45 -105 14 -25 35 -63 47 -85 12 -22 27 -44 34 -50 11 -9 81
-106 110 -154 6 -9 27 -41 48 -72 21 -31 40 -68 43 -84 3 -15 15 -46 26 -69
12 -22 22 -45 22 -51 1 -19 48 -105 57 -105 5 0 9 -5 9 -11 0 -18 82 -132 124
-171 23 -21 38 -38 34 -38 -21 0 -136 45 -158 62 -15 12 -26 15 -28 9 -2 -7
-14 -3 -29 9 -14 11 -31 20 -37 20 -26 1 -59 39 -65 76 -4 26 -13 42 -27 48
-11 5 -51 57 -89 115 -38 58 -74 111 -80 116 -5 6 -16 23 -23 39 -7 16 -15 26
-18 23 -7 -7 51 -131 80 -172 26 -36 73 -114 136 -220 25 -44 70 -114 98 -155
53 -76 60 -90 42 -90 -11 0 -95 84 -117 117 -8 12 -23 25 -33 28 -11 3 -52 56
-93 118 -85 127 -157 220 -164 213 -3 -3 22 -44 56 -91 33 -47 61 -89 61 -94
0 -4 14 -27 31 -50 17 -24 29 -45 26 -47 -2 -2 -24 23 -48 57 -24 33 -54 73
-66 87 -12 14 -36 54 -54 89 -31 61 -57 86 -43 41 8 -28 58 -104 196 -298 76
-108 187 -234 184 -208 -2 20 -94 138 -107 138 -5 0 -9 5 -9 12 0 7 -12 25
-27 40 -15 15 -23 28 -17 27 5 0 41 -36 79 -80 93 -107 132 -148 179 -186 57
-48 27 -40 -36 9 -47 36 -50 37 -23 9 35 -38 74 -60 107 -62 17 -1 18 -3 6 -6
-26 -7 -22 -16 17 -47 19 -16 32 -32 29 -37 -3 -5 2 -9 11 -9 12 0 15 5 11 18
-4 10 2 7 14 -8 11 -14 20 -28 20 -32 0 -12 -25 -9 -38 4 -9 9 -12 8 -12 -4 0
-8 6 -21 14 -27 8 -6 16 -22 19 -34 5 -16 -5 -10 -38 25 -59 61 -57 51 2 -19
26 -31 68 -65 95 -79 27 -14 51 -31 54 -39 3 -7 13 -11 22 -8 15 4 15 3 2 -6
-13 -10 -11 -15 14 -33 16 -12 39 -24 50 -25 26 -4 100 -52 92 -60 -3 -3 6
-14 19 -25 14 -11 25 -25 24 -31 0 -8 -2 -8 -6 1 -2 6 -10 12 -17 12 -18 0
-48 35 -39 45 5 4 2 5 -5 0 -9 -5 -26 4 -48 26 -19 18 -34 28 -34 22 0 -5 36
-43 79 -83 44 -41 96 -95 117 -122 21 -26 43 -48 49 -48 21 0 67 -60 62 -81
-3 -12 0 -22 9 -26 8 -3 12 -9 9 -13 -6 -10 14 -25 22 -16 3 3 -2 17 -11 30
-18 29 -21 40 -6 31 18 -11 11 8 -12 33 -13 14 -17 22 -11 18 7 -4 23 -9 35
-11 21 -4 56 -34 127 -107 41 -43 61 -50 37 -13 -9 14 -14 30 -11 34 3 5 -8
15 -25 23 -17 7 -33 21 -36 30 -2 9 -27 40 -54 68 -28 29 -50 56 -50 61 0 5
-7 9 -16 9 -8 0 -12 4 -9 10 3 5 0 7 -8 4 -8 -3 -18 6 -25 21 -6 14 -19 25
-28 25 -19 0 -121 99 -116 113 1 5 -5 16 -15 24 -17 14 -17 14 0 9 25 -8 21 1
-15 35 -18 16 -28 29 -22 29 19 0 65 -41 74 -66 5 -13 14 -24 20 -24 8 0 8 6
0 20 -9 16 -8 18 5 14 8 -4 15 -12 15 -19 0 -8 5 -17 12 -21 7 -4 8 -3 4 4
-14 23 11 12 35 -15 13 -16 17 -22 9 -15 -8 6 -18 12 -23 12 -4 0 15 -22 44
-49 35 -33 47 -51 39 -56 -9 -6 -9 -9 1 -16 9 -5 16 -2 21 9 6 14 7 14 7 -4 1
-11 12 -31 27 -44 21 -21 27 -22 35 -10 7 10 12 11 15 4 7 -18 76 -86 81 -81
5 6 53 -41 53 -52 0 -9 46 -61 55 -61 14 0 2 29 -21 51 -14 13 -44 50 -65 82
-22 31 -44 57 -49 57 -6 0 -10 6 -10 13 0 16 -70 118 -114 167 -19 21 -40 48
-46 61 -36 66 -190 257 -190 234 0 -4 -7 -2 -15 5 -18 15 -19 1 -2 -21 7 -9
19 -14 27 -12 8 2 3 -3 -12 -12 -16 -9 -40 -13 -55 -11 -15 3 -30 1 -34 -5 -4
-6 -16 2 -29 21 -27 38 -22 48 10 20 13 -11 25 -18 28 -15 3 3 -16 23 -41 46
-26 22 -55 57 -64 77 -10 20 -25 46 -35 56 -10 11 -18 25 -18 32 0 7 -3 19 -6
27 -7 20 22 29 49 14 12 -6 24 -13 26 -14 1 -1 0 -7 -4 -13 -5 -8 -15 -4 -31
11 -47 44 -23 -1 26 -50 28 -27 50 -53 50 -58 0 -5 21 -26 48 -48 26 -22 41
-32 34 -23 -8 10 -10 23 -6 29 4 8 3 9 -4 5 -12 -7 -78 52 -68 61 2 3 -7 16
-22 29 -15 13 -22 24 -15 24 17 0 -5 60 -22 60 -8 0 -23 13 -34 29 -25 34 -27
49 -6 31 13 -11 14 -10 9 4 -11 29 15 17 43 -21 22 -30 138 -149 207 -213 37
-35 81 -86 78 -93 -1 -5 1 -6 6 -3 9 5 52 -38 52 -52 0 -5 11 -15 25 -22 14
-7 25 -19 25 -27 0 -7 5 -13 10 -13 6 0 10 -8 10 -18 0 -9 9 -23 20 -30 35
-21 23 5 -37 86 -106 142 -183 227 -266 292 -51 40 -149 145 -166 178 -11 20
-38 59 -60 86 -23 26 -41 54 -41 61 0 16 -35 47 -43 38 -4 -3 -7 1 -7 9 0 9 7
19 16 22 8 3 12 11 8 17 -4 8 -9 7 -14 -2 -11 -16 -38 4 -51 38 -5 13 -13 23
-19 23 -15 0 -12 -12 10 -40 11 -14 20 -29 20 -33 0 -4 10 -21 22 -37 16 -22
24 -27 31 -18 6 9 7 8 3 -4 -3 -12 5 -29 25 -49 16 -16 27 -34 24 -40 -4 -5
-2 -9 4 -9 18 0 83 -93 70 -101 -27 -16 -219 218 -219 267 0 17 -30 75 -43 85
-5 3 -8 9 -8 13 1 3 -6 20 -14 36 -9 17 -11 30 -6 30 6 0 18 -14 26 -31 9 -17
19 -29 22 -26 2 3 0 15 -7 26 -9 17 -8 21 5 21 14 0 12 5 -7 29 -13 17 -28 30
-35 30 -16 1 -44 31 -38 41 3 5 1 11 -5 15 -5 3 -10 15 -10 25 0 10 -7 23 -16
28 -9 5 -15 15 -12 23 3 8 18 -8 39 -39 18 -29 40 -52 48 -52 8 0 3 10 -13 25
-16 14 -26 32 -23 39 3 7 -6 25 -20 40 -20 22 -24 34 -19 59 4 22 3 27 -3 17
-9 -12 -11 -12 -17 3 -3 9 -11 14 -17 10 -5 -3 -7 -1 -3 5 3 5 1 12 -5 14 -8
3 -7 9 3 19 8 8 13 20 10 27 -6 20 7 14 34 -15 14 -16 22 -22 18 -14 -5 10 -3
12 5 7 7 -5 10 -14 7 -22 -3 -8 0 -13 6 -11 5 1 12 -5 13 -13 2 -8 10 -32 19
-52 15 -34 15 -38 0 -46 -11 -6 -13 -11 -5 -16 6 -4 11 -2 11 3 0 6 9 11 20
11 33 0 33 24 0 84 -18 31 -27 56 -21 56 6 0 16 -11 21 -24 5 -13 23 -41 41
-61 25 -29 32 -45 31 -71 -2 -25 6 -47 28 -79 16 -24 30 -47 30 -52 0 -4 9
-19 20 -33 20 -25 20 -24 0 24 -11 26 -28 60 -38 75 -26 37 -34 51 -28 51 2 0
26 -30 52 -67 53 -75 74 -99 74 -86 0 5 -5 14 -11 20 -6 6 -9 17 -7 24 2 7 14
-3 26 -23 12 -20 39 -44 60 -53 20 -10 41 -20 46 -23 5 -3 1 6 -10 20 -10 14
-22 21 -25 16 -4 -7 -9 -6 -13 1 -4 6 -4 11 -1 11 4 0 -1 7 -10 16 -9 9 -14
18 -11 21 7 7 83 -44 99 -68 9 -11 32 -33 53 -47 21 -14 48 -37 61 -51 12 -14
23 -21 23 -14 0 6 -4 15 -10 18 -5 3 -10 10 -10 15 0 13 61 -7 95 -31 17 -12
24 -16 18 -8 -20 20 -16 27 15 22 l27 -5 -31 20 c-17 11 -41 23 -55 27 -21 7
-22 6 -10 -9 17 -20 12 -20 -38 0 -22 9 -43 24 -46 34 -4 11 -12 17 -20 13 -9
-3 -21 7 -32 26 -10 17 -22 31 -26 31 -5 0 -5 -4 -2 -10 3 -5 2 -10 -3 -10 -6
0 -12 7 -16 15 -3 8 0 15 7 15 8 0 6 4 -3 10 -8 5 -12 10 -8 10 7 0 39 -17
111 -60 28 -16 41 -20 48 -11 5 6 6 9 3 6 -11 -8 -97 62 -164 132 -60 65 -91
103 -100 127 -16 42 -5 43 22 2 13 -20 28 -36 34 -36 10 0 68 -57 172 -168 28
-28 49 -60 48 -70 -1 -11 5 -16 17 -14 19 3 65 -22 111 -63 17 -14 41 -28 55
-32 14 -3 43 -14 63 -24 21 -11 44 -19 53 -19 23 0 18 18 -7 25 -13 4 -36 12
-53 20 -16 7 -49 21 -73 31 -24 10 -57 34 -74 53 -18 20 -35 36 -38 36 -3 0
-22 18 -41 40 -18 22 -36 42 -40 45 -3 3 -15 22 -28 43 -12 20 -27 35 -31 32
-5 -3 -16 8 -25 25 -8 16 -20 30 -25 30 -6 0 -10 9 -10 20 0 10 -9 24 -21 30
-11 7 -18 14 -15 18 4 3 -8 21 -26 39 -17 18 -29 36 -25 39 4 4 -1 13 -11 21
-11 9 -11 12 -2 7 8 -4 5 3 -7 15 -12 11 -27 21 -33 21 -5 0 -10 5 -10 12 0 6
-3 9 -6 5 -3 -3 22 -46 55 -95 34 -49 61 -96 61 -103 0 -17 -116 106 -136 144
-8 15 -19 27 -24 27 -6 0 -9 3 -9 8 1 4 1 20 0 36 -1 20 -5 27 -16 22 -17 -6
-35 10 -65 59 -12 19 -27 35 -33 35 -7 0 -6 4 3 9 8 6 18 7 22 5 4 -3 5 3 1
12 -5 14 -3 16 12 11 15 -6 16 -5 5 8 -7 8 -17 12 -23 8 -6 -4 -8 0 -4 9 3 9
-1 25 -9 37 -8 11 -12 21 -7 21 4 0 3 4 -3 8 -6 4 -26 36 -45 72 -19 36 -38
68 -42 71 -5 3 -9 12 -10 20 -2 8 -6 20 -10 27 -5 6 -6 16 -3 21 3 4 -1 17 -9
27 -15 18 -15 18 -9 -1 6 -16 4 -18 -6 -8 -7 6 -12 23 -12 38 0 18 -5 25 -14
21 -7 -3 -11 0 -9 7 6 17 -52 107 -69 107 -8 0 -46 43 -85 95 -39 52 -76 97
-81 100 -6 4 -21 28 -34 53 -13 26 -61 97 -106 157 -45 61 -85 117 -90 125 -8
13 -10 13 -22 0 -7 -8 -9 -12 -4 -8 9 8 36 -15 36 -30 0 -4 11 -19 25 -32 30
-29 31 -36 4 -43 -15 -4 -22 1 -29 17 -4 13 -14 29 -22 37 -22 23 -51 72 -37
64 9 -6 11 -4 6 8 -3 9 -1 17 4 19 6 2 0 12 -13 23 -18 16 -20 16 -9 2 8 -9
11 -21 7 -25 -9 -8 -56 47 -56 65 0 12 -38 43 -52 43 -5 0 1 -18 12 -40 11
-21 20 -50 20 -62 -1 -20 -3 -18 -19 12 -9 19 -22 44 -28 55 -6 11 -17 34 -24
50 -7 17 -15 34 -18 39 -2 5 3 7 12 3 27 -10 20 10 -13 40 -16 14 -30 30 -30
34 0 5 -11 25 -25 45 -14 20 -25 42 -24 48 0 7 3 6 6 -1 2 -7 10 -13 16 -13 6
0 1 10 -11 23 -12 13 -41 57 -65 100 -24 42 -46 74 -49 71z m771 -1087 c42
-38 51 -61 29 -70 -8 -3 -6 -6 5 -6 9 -1 17 -8 17 -16 0 -7 6 -18 14 -22 7 -4
17 -21 23 -38 5 -16 15 -30 20 -30 17 0 24 -11 27 -39 2 -15 10 -34 19 -44 15
-18 49 -88 62 -131 4 -13 18 -35 31 -48 24 -23 31 -44 17 -42 -18 1 -67 74
-85 126 -11 32 -28 67 -38 78 -10 11 -21 31 -25 45 -12 40 -35 69 -50 64 -9
-4 -15 5 -17 28 -2 23 -10 36 -26 43 -12 5 -20 16 -17 22 2 7 -2 13 -10 13 -8
0 -15 -5 -15 -12 0 -6 -7 -3 -15 8 -17 23 -19 38 -4 28 6 -3 3 9 -7 27 -10 19
-17 40 -16 47 2 6 -2 12 -8 12 -11 0 -14 33 -3 43 4 4 12 -5 18 -20 7 -16 31
-45 54 -66z m-261 -39 c7 1 12 -4 12 -11 0 -7 9 -23 20 -35 11 -12 20 -28 20
-37 0 -12 -8 -8 -25 13 -14 17 -25 32 -25 35 0 12 -69 81 -75 75 -8 -8 19 -60
39 -77 9 -8 16 -20 16 -27 0 -8 3 -14 8 -14 4 0 12 -10 18 -23 87 -169 130
-247 151 -268 13 -15 24 -33 23 -40 -4 -25 1 -55 7 -41 6 16 52 -41 77 -97 11
-22 23 -41 28 -41 4 0 8 -11 8 -24 0 -13 9 -35 20 -49 12 -14 16 -28 11 -32
-5 -3 -14 3 -20 12 -9 16 -10 16 -11 -4 0 -12 5 -25 10 -28 6 -3 10 -16 10
-28 0 -16 -8 -9 -34 30 -19 28 -42 70 -52 92 -10 23 -22 41 -28 41 -5 0 -6 3
-3 7 4 3 2 12 -5 20 -8 11 -7 12 6 7 9 -3 16 -1 16 5 0 6 -5 11 -11 11 -18 0
-40 30 -81 110 -13 25 -26 47 -30 50 -3 3 -10 18 -13 33 -4 15 -10 27 -14 27
-4 0 -22 35 -41 78 -18 42 -47 102 -64 132 -45 81 -70 159 -55 176 9 11 17 4
43 -34 18 -26 38 -46 44 -44z m1041 -1917 c12 -16 21 -34 21 -41 0 -6 4 -9 8
-6 10 6 35 -22 57 -64 15 -29 15 -30 -5 -30 -11 0 -20 4 -20 10 0 9 -99 57
-112 53 -3 -1 -25 15 -47 36 -23 22 -48 42 -56 45 -21 8 -19 26 3 26 10 0 23
5 30 12 9 9 15 9 24 0 17 -17 28 -15 21 4 -10 26 51 -10 76 -45z"/>
<path d="M4266 5765 c-11 -8 -29 -15 -40 -15 -17 0 -18 -2 -6 -10 12 -8 13
-11 1 -19 -11 -7 -11 -9 0 -14 8 -3 0 -3 -18 0 -17 3 -39 0 -50 -6 -17 -10
-17 -10 1 -11 13 0 6 -9 -25 -30 -57 -38 -73 -38 -31 0 30 27 31 30 12 30 -34
0 -18 24 24 35 20 6 34 14 30 18 -7 6 -183 1 -259 -8 -22 -3 -57 -1 -77 4 -21
5 -57 5 -85 0 -26 -5 -77 -12 -113 -14 -125 -10 -165 -16 -235 -37 -38 -11
-90 -24 -115 -29 -25 -6 -61 -18 -80 -28 -35 -19 -70 -15 -85 8 -10 17 -28 13
-21 -5 7 -18 -10 -44 -29 -44 -6 0 -18 11 -25 25 -15 28 -18 29 -40 15 -11 -7
-12 -14 -3 -32 6 -13 19 -42 28 -66 10 -23 24 -47 32 -54 8 -6 19 -20 24 -31
10 -17 8 -18 -19 -12 -22 4 -31 2 -35 -9 -4 -11 0 -16 11 -17 10 0 12 -3 5 -6
-7 -2 -13 -10 -13 -17 0 -7 -11 -23 -25 -36 -14 -13 -25 -30 -25 -37 0 -8 -4
-12 -9 -9 -7 5 -21 -14 -25 -34 -1 -3 -5 -11 -10 -19 -5 -8 -9 -26 -10 -41 -1
-34 -33 -93 -56 -106 -68 -36 -109 -60 -173 -101 -39 -26 -99 -62 -132 -80
-33 -17 -59 -37 -57 -43 1 -6 -2 -9 -7 -6 -10 7 -104 -41 -109 -56 -2 -4 -10
-8 -18 -8 -8 0 -14 -3 -14 -8 0 -4 -13 -13 -30 -20 -35 -16 -41 -37 -8 -26 20
6 21 5 9 -10 -20 -24 -1 -19 33 8 19 16 26 28 20 37 -6 11 -5 12 7 2 11 -9 18
-8 31 1 10 7 14 17 10 21 -4 5 -2 5 5 1 6 -3 29 5 50 20 21 14 48 30 61 35 13
5 21 13 18 18 -3 5 22 23 57 41 43 22 54 25 37 11 -20 -17 -21 -20 -5 -14 38
13 64 34 58 49 -3 8 0 14 7 14 6 0 8 -4 5 -10 -3 -5 -4 -10 -1 -10 5 0 154 86
213 123 24 15 48 27 54 27 14 0 -58 -82 -80 -92 -11 -4 -7 -7 12 -7 15 -1 27
-5 27 -11 0 -5 11 -10 25 -10 14 0 25 5 25 11 0 5 5 7 12 3 18 -11 62 -14 68
-5 8 14 160 25 160 12 0 -6 6 -11 14 -11 9 0 13 7 11 20 -2 13 2 20 11 20 8 0
12 -4 9 -10 -4 -6 9 -11 32 -12 57 -2 70 0 116 21 23 10 53 22 67 26 14 4 37
18 52 31 15 12 41 25 58 29 16 4 33 11 37 17 4 7 0 9 -10 5 -33 -13 -16 9 28
35 25 15 45 22 45 16 0 -7 7 -5 18 4 9 9 35 25 58 36 52 26 71 49 56 64 -9 9
-12 9 -12 1 0 -9 -94 -47 -143 -57 -7 -2 -38 -15 -70 -30 -32 -14 -66 -26 -77
-26 -10 0 -22 -4 -25 -10 -9 -15 -35 -12 -29 3 6 16 96 62 142 71 17 4 32 11
32 16 0 4 6 7 13 7 13 -2 108 42 117 53 3 4 16 13 28 19 18 10 23 19 19 38 -3
16 -1 21 5 15 7 -7 26 -4 56 9 24 11 47 17 50 14 3 -3 12 1 21 7 10 8 9 4 -3
-9 -10 -13 -23 -20 -28 -17 -12 7 -68 -15 -68 -27 0 -5 5 -9 11 -9 5 0 -3 -11
-18 -25 l-28 -24 25 -1 c28 0 35 4 153 83 48 32 90 65 95 73 5 9 41 30 81 48
39 18 75 37 79 41 4 5 1 5 -5 1 -9 -5 -13 0 -13 13 0 12 6 21 14 21 7 0 26 6
40 14 22 11 24 15 11 20 -9 3 -26 6 -38 7 -35 1 113 56 156 58 35 2 16 21 -22
21 -25 0 -41 5 -45 15 -3 8 0 16 7 16 16 2 -42 16 -68 17 -11 1 -29 -5 -39
-13z m-838 -267 c6 -6 37 -10 74 -9 160 6 181 5 172 -10 -5 -8 7 -10 39 -6 35
4 51 2 67 -11 21 -17 19 -19 -102 -77 -68 -33 -127 -60 -133 -61 -34 -3 -86
-18 -91 -25 -3 -5 1 -6 9 -3 8 3 18 1 21 -5 4 -6 -5 -13 -21 -17 -55 -12 -93
-26 -93 -34 0 -13 -48 -18 -59 -7 -19 19 -12 29 17 23 18 -4 38 0 60 14 48 29
31 40 -30 20 -67 -22 -79 -14 -66 42 11 50 39 100 82 146 33 36 37 37 54 20z"/>
<path d="M1400 4713 c-41 -20 -79 -37 -85 -37 -5 -1 -13 -5 -17 -10 -3 -5 -12
-11 -20 -13 -7 -1 -26 -6 -43 -9 -16 -4 -45 -16 -63 -26 -42 -23 -45 -23 -31
5 11 21 11 21 -7 6 -10 -9 -41 -27 -69 -39 -27 -12 -57 -28 -65 -35 -14 -13
-177 -110 -385 -230 -95 -55 -184 -98 -275 -135 -87 -35 -211 -98 -210 -107 0
-4 -3 -8 -7 -8 -24 0 -83 -38 -83 -53 0 -14 -2 -14 -9 -3 -23 36 -31 -5 -31
-152 l0 -152 44 -18 c47 -19 62 -32 68 -57 2 -8 11 -23 22 -35 10 -11 25 -31
35 -45 9 -14 43 -61 76 -104 33 -44 87 -116 120 -161 33 -45 77 -97 98 -115
39 -34 87 -49 87 -27 0 24 49 -49 55 -83 10 -51 19 -59 27 -25 4 17 4 5 1 -25
-3 -30 -9 -57 -14 -58 -5 -2 1 -12 15 -23 13 -10 27 -34 30 -53 4 -20 12 -38
18 -42 7 -5 8 -2 3 7 -6 11 -4 10 8 -1 8 -8 18 -25 22 -37 5 -19 3 -22 -12
-16 -17 6 -17 5 -2 -13 22 -26 31 -54 18 -54 -6 0 -13 9 -16 20 -3 11 -13 20
-23 20 -9 0 -22 12 -29 26 -10 23 -10 25 9 19 27 -9 17 17 -12 30 -11 6 -19
13 -17 17 2 4 -5 14 -16 21 -10 8 -25 30 -31 48 -11 31 -13 32 -13 9 -1 -14
12 -50 29 -80 16 -30 36 -67 42 -81 25 -50 138 -157 138 -130 0 6 -5 11 -11
11 -8 0 -8 5 1 15 14 16 40 20 40 6 0 -5 -5 -11 -12 -13 -9 -3 -9 -6 0 -12 7
-4 12 -2 12 3 0 22 18 10 44 -30 15 -22 25 -44 21 -47 -4 -4 -11 1 -16 11 -6
9 -17 17 -24 17 -8 0 -15 5 -15 10 0 6 -7 10 -16 10 -11 0 -7 -8 14 -27 34
-32 77 -60 68 -44 -11 16 11 22 24 6 7 -8 43 -35 80 -60 37 -25 74 -55 82 -68
37 -56 180 -168 278 -217 37 -19 49 -21 74 -12 16 6 34 8 40 4 6 -3 26 -8 45
-9 41 -3 131 -34 131 -45 0 -4 6 -8 14 -8 8 0 18 -5 22 -12 5 -8 -12 -10 -67
-5 -53 4 -69 3 -56 -4 30 -17 263 -27 310 -13 9 3 17 1 17 -5 0 -8 5 -8 18 -1
19 11 96 39 130 47 12 3 22 9 22 14 0 5 -6 6 -12 4 -20 -6 -80 -17 -118 -20
-19 -2 -68 -7 -107 -11 -48 -4 -73 -3 -73 3 0 6 -9 13 -21 16 -32 9 -12 30 22
23 16 -3 29 -1 29 4 0 6 16 8 41 4 34 -6 42 -3 55 15 17 23 39 29 31 7 -4 -10
0 -12 14 -9 13 4 19 0 19 -11 0 -16 2 -16 22 -2 12 9 30 16 40 16 10 0 18 6
18 13 0 7 9 18 20 25 16 10 20 10 20 -2 0 -8 -6 -17 -12 -19 -8 -3 -8 -6 -2
-6 18 -1 59 40 56 55 -2 8 4 14 13 14 8 0 15 4 15 9 0 5 -9 7 -20 4 -11 -3
-20 -8 -20 -12 0 -3 -14 -7 -30 -8 -29 -2 -30 -1 -16 18 24 34 48 46 104 48
58 2 65 -6 25 -31 l-28 -17 26 -1 c26 0 142 42 163 59 15 13 82 30 144 37 50
5 57 2 54 -27 -1 -9 47 2 53 12 3 4 12 6 19 3 7 -3 19 2 26 11 15 18 15 18
-29 5 -27 -8 -32 -7 -23 2 7 7 32 12 55 12 31 -1 50 5 71 23 16 13 41 26 55
29 28 6 42 44 16 44 -9 0 -12 6 -9 15 4 8 14 15 24 15 11 0 22 5 25 11 4 5 18
14 32 20 14 5 21 14 17 20 -3 6 5 4 19 -6 14 -9 27 -12 30 -8 7 11 67 8 75 -4
4 -5 15 -12 24 -16 13 -4 16 -1 12 17 -3 20 0 23 21 18 14 -2 25 -8 25 -11 0
-4 7 -8 15 -8 8 0 15 6 15 14 0 15 16 17 25 3 4 -6 54 -10 121 -9 90 0 120 -3
140 -16 13 -9 30 -13 36 -9 6 4 8 3 5 -3 -7 -12 60 -71 110 -97 18 -9 42 -16
55 -15 22 1 22 1 -3 8 -32 10 -139 81 -139 92 0 16 -2 24 -10 39 -7 13 0 14
38 11 26 -1 55 -10 65 -19 10 -9 17 -11 17 -4 0 7 4 12 9 12 5 0 7 -9 4 -20
-4 -16 0 -20 18 -20 12 0 20 -3 16 -6 -10 -10 18 -32 49 -39 16 -4 55 -16 88
-26 89 -30 77 -16 -20 22 -57 23 -93 43 -103 59 -15 24 -15 24 2 11 22 -18 81
-25 71 -9 -5 8 -2 9 10 5 10 -4 22 -7 27 -7 6 0 7 -4 4 -10 -3 -5 1 -10 9 -10
9 0 25 -9 37 -21 11 -11 27 -18 36 -15 11 5 9 12 -14 34 -15 15 -40 35 -55 45
-38 24 -38 50 0 41 36 -9 39 -13 22 -25 -13 -8 -13 -10 0 -18 169 -105 202
-131 168 -131 -24 0 147 -89 182 -95 19 -3 43 -11 54 -16 10 -6 44 -15 75 -20
129 -20 571 -226 571 -266 0 -13 69 -73 84 -73 4 0 -9 19 -30 43 -22 24 -46
52 -55 63 -9 10 -36 34 -60 53 l-44 33 35 -7 c19 -3 46 -15 60 -26 14 -10 39
-26 55 -35 46 -26 99 -75 102 -96 2 -13 -1 -17 -9 -12 -7 4 -6 -1 3 -12 9 -10
22 -37 29 -59 15 -46 40 -85 87 -134 32 -33 37 -49 34 -98 -1 -11 3 -24 8 -28
7 -4 11 9 11 37 1 41 1 42 16 23 15 -20 19 -22 62 -24 12 0 32 -12 44 -26 12
-14 27 -25 33 -25 6 0 31 -18 55 -40 47 -43 78 -55 41 -16 -17 18 -19 25 -9
29 9 3 4 11 -14 26 -16 13 -28 28 -28 36 0 7 -3 15 -7 17 -12 5 -42 66 -36 72
3 3 14 1 24 -5 14 -7 17 -17 13 -33 -4 -16 0 -25 11 -30 9 -3 13 -10 10 -16
-4 -6 6 -10 22 -10 l28 1 -26 14 c-31 17 -46 45 -24 45 22 0 28 20 11 39 -9
10 -16 21 -16 25 0 4 12 -6 26 -23 14 -17 30 -31 35 -31 11 0 61 -33 99 -66
25 -21 70 -38 70 -26 0 4 -5 14 -10 22 -9 13 -11 13 -20 0 -9 -13 -14 -7 -11
13 0 4 -5 7 -12 7 -6 0 -23 9 -37 20 -14 11 -18 18 -9 15 9 -4 23 1 32 10 17
16 30 6 22 -17 -4 -9 0 -15 10 -15 33 0 8 43 -73 124 -38 38 -37 26 2 -17 38
-43 40 -48 27 -69 -7 -10 -12 -8 -25 10 -9 13 -16 29 -16 36 0 7 -4 13 -10 13
-5 0 -10 6 -10 13 0 7 -13 26 -30 42 -32 31 -38 51 -17 58 9 3 7 9 -5 24 -21
23 -24 40 -4 24 8 -6 18 -11 22 -10 21 4 36 -3 69 -32 19 -17 32 -36 28 -42
-3 -6 -1 -7 5 -3 8 4 16 -3 23 -21 8 -22 12 -24 19 -13 8 12 10 10 10 -7 0
-15 10 -28 29 -38 30 -15 37 -29 40 -79 1 -19 -3 -26 -12 -23 -50 21 -51 19
-17 -19 19 -21 36 -40 37 -42 1 -2 10 1 20 7 12 7 13 10 4 11 -10 0 -12 12 -9
50 3 28 1 53 -3 56 -5 2 -7 24 -6 47 1 36 -1 42 -17 40 -22 -2 -46 19 -46 39
0 8 -4 19 -10 26 -7 9 -7 9 2 2 7 -5 19 -10 28 -10 8 1 -2 10 -24 21 -32 17
-40 18 -48 7 -6 -9 -7 -6 -3 10 7 23 -10 32 -18 10 -2 -7 -5 4 -5 25 0 20 -7
48 -15 61 -9 12 -20 41 -26 64 -7 23 -24 51 -40 65 -16 13 -32 34 -36 46 -3
12 -21 35 -38 53 -31 30 -31 30 -4 14 15 -9 32 -14 37 -11 6 3 7 -1 4 -9 -4
-11 0 -16 12 -15 11 0 14 3 6 6 -6 2 -10 8 -7 13 6 10 -94 95 -114 96 -42 2
-102 18 -112 30 -6 8 -22 14 -35 14 -17 0 -24 6 -24 20 0 24 -25 50 -63 68
-29 12 -32 36 -6 38 8 0 31 -8 51 -18 36 -18 37 -18 33 3 -3 15 0 19 13 17 9
-2 16 -11 16 -21 -1 -10 5 -17 17 -17 10 0 21 -4 24 -10 3 -5 17 -10 29 -10
13 0 35 -11 50 -25 15 -14 30 -25 34 -25 4 0 21 -13 37 -28 33 -31 65 -47 65
-32 0 6 -4 10 -8 10 -4 0 -26 16 -48 36 -38 35 -134 111 -163 129 -8 4 -42 14
-75 21 -46 10 -63 10 -68 1 -6 -9 -8 -9 -8 1 0 8 -5 10 -12 6 -17 -11 -48 -12
-54 -3 -2 4 0 10 5 14 20 12 -1 37 -25 31 -14 -4 -24 -2 -24 4 0 5 -5 10 -11
10 -5 0 -7 -4 -4 -10 9 -15 0 -12 -40 10 -43 24 -49 25 -41 5 7 -20 -18 -19
-57 1 -18 10 -44 23 -60 31 -15 8 -44 15 -64 17 -32 2 -39 6 -47 31 -5 17 -11
37 -14 45 -6 16 -10 38 -15 81 -2 14 -7 30 -11 37 -4 7 -5 12 -1 12 3 0 0 10
-7 23 -7 12 -13 24 -13 27 -1 3 -7 22 -14 43 -7 20 -11 43 -8 50 2 6 0 20 -5
31 -7 12 -7 16 0 12 19 -11 7 21 -21 57 -15 20 -27 39 -27 44 -1 21 -37 54
-53 47 -22 -8 -14 -41 15 -66 11 -10 17 -22 13 -28 -9 -15 -25 -12 -25 5 0 8
-5 15 -11 15 -5 0 -7 5 -4 10 3 6 -1 13 -9 16 -9 3 -16 12 -16 20 0 8 -4 14
-10 14 -21 0 -9 30 13 31 12 0 16 3 10 6 -7 2 -13 10 -13 17 0 18 -57 126 -63
120 -5 -5 -33 51 -51 100 -6 17 -5 17 10 5 16 -13 16 -12 1 18 -9 17 -21 35
-27 38 -13 8 -60 100 -60 116 0 14 -47 59 -61 59 -17 0 -9 -19 12 -30 11 -7
18 -14 15 -17 -3 -4 0 -13 6 -21 7 -8 13 -20 14 -26 0 -6 2 -19 2 -29 1 -10 7
-15 12 -12 6 3 10 0 10 -8 0 -8 3 -30 6 -48 5 -34 5 -34 -13 -13 -10 11 -25
18 -33 16 -13 -5 -13 -3 -1 11 14 17 10 21 -21 18 -23 -3 -45 37 -24 45 12 5
12 9 1 30 -7 14 -11 48 -9 79 1 30 -1 57 -7 60 -5 4 -6 18 -3 32 5 17 3 24 -4
20 -5 -4 -18 -41 -27 -83 -13 -61 -15 -100 -9 -207 3 -73 13 -150 21 -172 7
-22 20 -77 28 -124 16 -90 32 -129 21 -48 -5 31 -4 47 3 47 6 0 11 -4 11 -9 0
-5 14 -23 30 -41 17 -18 30 -37 30 -44 0 -6 -10 0 -21 14 -11 14 -18 20 -15
14 3 -6 8 -34 12 -63 6 -54 -6 -68 -26 -30 -7 11 -14 18 -17 16 -6 -7 29 -67
39 -67 4 0 8 6 8 14 0 8 7 17 16 20 20 8 45 -22 38 -45 -2 -9 2 -24 10 -32 9
-8 20 -34 25 -57 5 -23 13 -45 17 -48 4 -4 4 2 0 12 -5 16 -4 17 9 6 10 -8 12
-17 6 -24 -6 -8 -6 -17 1 -26 8 -12 9 -11 4 4 -5 16 -1 14 20 -7 14 -14 38
-32 54 -39 23 -10 26 -15 17 -29 -14 -22 -46 -12 -58 19 -14 37 -17 24 -10
-35 5 -32 4 -53 -2 -53 -5 0 -16 -8 -23 -17 -11 -16 -16 -16 -34 -5 -12 7 -24
11 -27 8 -3 -3 2 -8 11 -12 23 -9 20 -27 -4 -21 -19 5 -19 4 -2 -18 9 -13 26
-25 37 -27 11 -2 18 -7 16 -13 -2 -5 -14 -9 -25 -7 -21 3 -21 3 -1 -11 29 -21
62 -29 70 -17 11 18 33 11 28 -9 -2 -10 3 -26 12 -35 10 -9 15 -20 11 -23 -3
-4 -12 -1 -18 5 -7 7 -18 12 -25 12 -7 0 -33 13 -59 29 -25 17 -58 33 -73 36
-14 3 -36 20 -48 38 -13 17 -23 26 -23 19 0 -6 -4 -12 -10 -12 -5 0 -7 7 -4
15 9 23 -13 43 -57 50 -22 4 -64 15 -92 25 -29 10 -95 23 -147 30 -52 6 -114
18 -136 25 -23 8 -60 15 -83 16 -23 2 -41 6 -41 10 0 4 -17 10 -37 13 -21 4
-50 9 -65 12 -17 3 -28 1 -28 -5 0 -6 3 -10 8 -9 10 2 62 -11 92 -24 37 -15
153 -46 254 -68 99 -21 154 -53 78 -46 -23 3 -46 7 -52 11 -6 3 -40 8 -76 10
-36 2 -71 8 -78 14 -7 6 -15 9 -17 7 -2 -3 -40 7 -84 22 -45 15 -91 25 -105
22 -24 -5 -25 -6 -8 -22 10 -10 18 -15 18 -12 0 3 14 -3 30 -13 17 -9 30 -21
30 -25 0 -13 -22 -20 -32 -10 -6 6 -17 8 -24 5 -8 -3 -30 4 -49 16 -25 14 -60
22 -118 26 -45 3 -109 8 -141 11 -43 5 -57 4 -52 -5 9 -14 -26 -15 -71 -2 -37
11 -76 4 -66 -11 3 -6 0 -8 -8 -6 -8 3 -13 11 -11 17 3 15 -15 14 -21 -1 -4
-10 -6 -10 -6 0 -1 6 -10 12 -21 12 -21 0 -80 -26 -80 -36 0 -2 8 -1 18 5 28
15 68 17 84 3 8 -6 53 -17 99 -23 46 -6 86 -15 90 -20 3 -5 31 -10 62 -12 31
-2 60 -7 64 -10 15 -16 -10 -18 -74 -9 -82 13 -221 24 -323 26 -41 0 -80 5
-87 9 -7 4 -40 -4 -75 -18 -35 -15 -97 -38 -138 -52 -41 -14 -79 -29 -85 -33
-5 -4 -53 -22 -105 -40 -52 -18 -106 -38 -120 -45 -14 -7 -60 -24 -102 -39
-43 -15 -98 -40 -122 -56 -24 -17 -54 -30 -66 -30 -13 0 -37 -9 -54 -19 -25
-16 -83 -33 -118 -36 -3 0 -10 -3 -14 -7 -4 -4 -13 -3 -21 4 -10 8 -20 8 -36
1 -16 -7 -33 -7 -56 1 -39 13 -51 32 -24 39 14 4 13 5 -4 6 -13 0 -23 -4 -23
-9 0 -7 -8 -6 -22 1 -13 7 -60 21 -107 31 -46 10 -102 27 -125 37 -22 10 -52
22 -66 25 l-25 7 23 -14 c12 -7 20 -16 16 -19 -7 -8 -52 10 -75 29 -8 7 -24
13 -34 13 -10 0 -15 3 -12 6 4 4 -3 19 -13 35 -15 20 -17 30 -8 35 8 5 4 10
-10 15 -32 12 -27 29 8 29 20 0 30 -5 30 -15 0 -8 7 -15 15 -15 8 0 15 -4 15
-8 0 -10 91 -34 150 -39 41 -3 43 -3 25 11 -24 18 -16 20 22 5 38 -15 194 -12
243 5 22 8 43 10 46 5 2 -5 26 -6 52 -3 50 7 240 61 257 74 6 4 30 15 55 23
25 9 79 30 120 47 78 33 336 113 405 126 22 5 42 9 45 9 3 1 31 9 62 18 31 10
61 16 65 15 4 -1 18 3 31 10 12 7 28 12 35 10 6 -1 24 1 38 5 15 4 57 11 95
17 74 12 97 16 131 23 31 8 69 -3 51 -14 -10 -7 -9 -9 4 -9 9 0 24 3 33 6 13
6 14 9 3 16 -9 7 -7 8 7 3 40 -15 115 -18 115 -6 0 7 -4 9 -10 6 -5 -3 -10 -1
-10 4 0 6 7 11 15 11 8 0 15 5 15 10 0 6 12 10 26 10 18 0 23 -4 17 -12 -14
-23 -11 -37 7 -43 11 -3 29 -22 40 -41 12 -19 31 -39 42 -45 18 -10 17 -6 -6
23 -14 19 -26 40 -26 45 0 6 -7 13 -15 17 -23 8 -18 23 11 30 17 5 24 12 20
21 -3 8 -1 15 4 15 6 0 10 -7 10 -15 0 -8 7 -15 15 -15 8 0 15 5 15 12 0 9 3
9 12 0 16 -16 49 -16 43 1 -5 13 28 70 39 67 4 -1 20 0 36 4 32 6 40 32 18 54
-8 8 -8 15 0 25 9 11 6 17 -16 27 -15 8 -37 23 -49 33 -19 17 -33 19 -92 15
-39 -3 -76 -10 -83 -15 -7 -6 -33 -10 -58 -10 -25 0 -66 -9 -92 -21 -65 -30
-88 -29 -89 6 l-1 27 -10 -27 c-7 -21 -18 -29 -46 -33 -42 -7 -81 -16 -167
-40 -221 -61 -276 -75 -301 -75 -16 0 -67 -14 -114 -30 -47 -16 -93 -30 -102
-30 -10 0 -18 -6 -18 -12 0 -9 -4 -8 -11 2 -7 11 -12 12 -15 3 -3 -7 -12 -9
-20 -6 -18 6 -74 -16 -74 -29 0 -6 -6 -8 -14 -5 -14 5 -80 -13 -92 -26 -4 -4
-16 -7 -26 -7 -11 0 -16 -4 -13 -10 3 -6 -1 -7 -9 -4 -9 4 -16 1 -16 -6 0 -7
-7 -10 -15 -6 -8 3 -15 1 -15 -4 0 -6 -4 -10 -10 -10 -5 0 -37 -13 -70 -29
-62 -30 -168 -55 -280 -66 -82 -8 -93 -9 -105 -16 -30 -18 -342 34 -313 52 15
9 1 15 -152 62 -162 50 -163 50 -156 39 3 -5 20 -13 38 -17 18 -4 27 -9 20
-12 -7 -3 -35 6 -61 19 -46 22 -49 23 -75 7 -15 -9 -23 -19 -18 -23 13 -8 22
-46 12 -46 -5 0 -11 9 -15 20 -3 11 -20 33 -36 50 -17 16 -27 30 -23 30 3 0
-4 9 -18 19 -35 28 -85 220 -60 235 5 3 9 19 10 35 0 16 5 38 11 49 6 11 7 22
3 26 -3 4 1 4 9 1 13 -5 16 0 14 19 -2 15 0 24 3 22 12 -6 127 91 126 105 -1
8 5 20 12 27 8 7 14 10 14 5 0 -10 29 30 30 41 0 6 -7 1 -15 -10 -8 -10 -14
-14 -14 -9 0 19 24 42 39 37 13 -5 13 -3 1 11 -11 15 -11 17 2 17 8 0 18 7 21
16 3 8 2 12 -4 9 -13 -8 -13 5 0 25 8 12 10 12 10 1 0 -15 14 -6 16 10 1 5 2
14 3 19 0 6 6 10 12 10 5 0 7 -4 4 -10 -3 -5 -4 -10 0 -10 9 0 56 113 51 126
-2 6 2 21 10 33 26 37 85 163 80 169 -3 3 -2 10 3 16 4 6 11 26 14 44 6 27 4
31 -6 20 -7 -7 -22 -26 -32 -41 -10 -15 -20 -25 -23 -23 -3 3 6 21 19 41 15
22 56 54 114 87 91 52 186 114 260 169 96 71 337 238 543 375 94 63 172 117
172 119 0 15 -306 -180 -399 -254 -22 -17 -44 -31 -50 -31 -6 0 -11 -4 -11 -8
0 -5 -15 -16 -32 -26 -48 -25 -72 -40 -88 -54 -66 -56 -327 -238 -357 -248
-12 -5 -10 1 9 20 15 14 31 26 35 26 5 0 14 9 21 20 7 11 17 20 23 20 6 0 24
11 41 25 16 14 37 25 45 25 9 0 13 3 10 7 -4 3 -1 13 6 21 10 13 9 14 -4 6
-34 -20 -143 -100 -168 -124 -15 -14 -53 -43 -86 -64 -33 -20 -72 -47 -87 -58
-24 -19 -28 -19 -42 -5 -16 16 -56 12 -56 -5 0 -5 -4 -7 -9 -3 -5 3 -13 1 -16
-5 -5 -8 -11 -7 -21 1 -8 6 -17 9 -20 6 -3 -3 -22 0 -42 7 -31 11 -55 12 -104
7 -5 -1 -7 -4 -7 -8 5 -28 -2 -35 -28 -28 -45 12 -86 18 -120 18 -43 1 -32 15
18 23 22 4 42 10 45 15 2 4 -10 6 -28 3 -49 -7 -60 -7 -93 -5 -23 1 -27 3 -15
11 11 7 -3 10 -46 10 -80 0 -100 19 -51 49 19 12 41 21 50 21 9 0 18 4 22 10
3 5 13 6 23 3 9 -3 14 -3 10 2 -4 4 0 14 10 22 12 10 8 10 -15 -2 -18 -8 -39
-15 -48 -15 -20 0 -92 -36 -97 -49 -2 -6 -33 -5 -81 4 -74 13 -80 13 -113 -7
-19 -11 -37 -18 -40 -15 -3 3 4 8 15 12 12 3 21 12 21 18 1 11 51 39 130 71
52 21 132 68 126 73 -2 3 -17 -2 -33 -10 -37 -20 -93 -38 -93 -29 1 4 46 29
100 57 80 39 102 47 112 36 11 -10 9 -11 -7 -5 -16 6 -18 4 -8 -6 9 -10 15
-10 26 -1 8 6 21 9 29 6 9 -4 18 1 21 9 4 9 13 13 21 10 9 -3 28 3 43 13 15
11 36 23 46 26 9 4 17 12 17 18 0 7 -10 5 -26 -6 -17 -11 -30 -13 -36 -7 -6 6
-6 12 1 16 6 4 11 5 11 1 0 -3 18 6 40 20 22 14 43 25 46 25 4 0 23 12 42 26
46 36 210 116 222 109 5 -3 14 4 20 15 7 13 7 20 0 20 -5 0 -10 -5 -10 -12 0
-6 -3 -8 -6 -5 -4 4 -1 13 5 21 7 8 11 19 8 23 -3 4 7 8 21 9 15 0 36 4 47 8
16 6 15 4 -5 -12 -13 -11 -28 -18 -32 -16 -4 3 -5 -2 -2 -10 8 -20 48 -11 81
17 17 16 20 23 11 30 -8 5 -5 6 9 2 14 -4 41 4 73 20 29 15 49 21 44 14 -8
-14 3 -8 49 24 15 10 35 16 44 13 13 -5 14 -4 3 9 -10 12 -9 15 5 15 10 0 15
3 12 7 -4 3 -2 12 4 20 18 20 0 15 -81 -24z m-671 -912 c13 -7 21 -8 17 -3 -3
6 17 2 44 -8 58 -21 53 -20 86 -20 14 0 23 -4 19 -9 -3 -6 10 -8 30 -5 26 3
35 0 35 -10 0 -17 -25 -26 -60 -22 -14 2 -25 4 -25 6 0 1 -31 4 -69 6 -42 2
-73 8 -78 16 -6 10 -11 9 -19 -5 -12 -20 -31 -14 -22 8 4 11 -2 15 -21 15 -27
0 -35 15 -13 23 9 4 9 6 -1 6 -7 1 -15 -5 -18 -13 -3 -8 -13 -12 -24 -9 -10 3
-25 1 -34 -4 -16 -9 -96 -2 -171 15 l-40 9 54 9 c79 13 282 10 310 -5z m3931
-1212 c0 3 5 -2 11 -13 9 -14 13 -15 19 -6 6 9 11 7 19 -9 7 -12 16 -19 20
-17 4 3 14 -6 22 -20 7 -14 21 -30 31 -35 23 -12 24 -41 2 -37 -10 2 -19 -3
-21 -9 -3 -8 7 -12 29 -11 19 1 42 -3 52 -9 17 -9 17 -11 -5 -16 -13 -3 -40
-4 -59 -4 -29 2 -35 6 -35 24 0 33 -15 40 -16 7 -1 -28 -1 -28 -8 -4 -4 15
-15 26 -29 28 -12 2 -27 12 -33 23 -10 20 -10 20 15 4 33 -22 34 -4 1 21 -28
21 -35 50 -9 40 9 -3 12 -2 9 5 -4 5 -17 9 -28 8 -26 -3 -70 18 -62 30 3 5 21
5 40 1 19 -4 35 -5 35 -1z m-1960 -9 c0 -5 14 -7 30 -5 17 2 30 -1 30 -6 0 -5
-11 -9 -24 -9 -14 0 -28 -5 -32 -11 -3 -6 1 -10 12 -9 30 3 36 1 27 -12 -4 -7
-8 -20 -8 -28 0 -11 -12 -15 -42 -15 -24 -1 -43 3 -43 7 0 4 5 8 12 8 6 0 9 3
6 6 -3 3 -28 -4 -54 -17 -27 -12 -60 -21 -74 -21 -14 0 -35 -6 -47 -14 -13 -8
-23 -10 -23 -5 0 5 9 13 20 16 23 7 27 25 5 25 -8 0 -15 -4 -15 -10 0 -5 -12
-10 -26 -10 -22 0 -24 2 -14 14 6 8 18 12 26 9 16 -6 19 12 4 22 -5 3 -10 10
-10 16 0 5 5 9 10 9 6 0 10 -7 10 -15 0 -8 4 -15 10 -15 15 0 50 32 44 41 -2
4 19 12 48 18 29 5 62 12 73 14 35 8 45 7 45 -3z m1212 -27 c43 -15 78 -31 78
-36 0 -4 -6 -5 -12 -1 -7 4 -4 -2 6 -14 22 -26 41 -29 32 -6 -10 26 3 33 37
22 53 -19 98 -60 91 -83 -4 -11 -8 -21 -9 -23 -7 -9 -121 31 -137 48 -11 11
-24 17 -30 14 -7 -4 -8 -2 -4 4 5 8 0 12 -13 12 -20 0 -130 69 -131 83 0 11 8
9 92 -20z m851 -313 c14 -11 30 -20 36 -20 5 0 14 -6 18 -14 7 -12 98 -46 120
-45 4 0 9 -4 11 -10 4 -13 0 -14 -32 -1 -32 12 -44 -4 -21 -30 9 -10 24 -16
36 -13 10 3 19 1 19 -5 0 -5 9 -12 20 -15 21 -5 28 7 10 18 -5 3 -10 11 -10
17 0 6 10 2 23 -9 12 -11 30 -23 39 -26 16 -6 53 -75 45 -84 -7 -6 -37 9 -37
18 0 5 -6 9 -13 9 -7 0 -20 9 -30 20 -9 11 -26 20 -36 20 -11 0 -22 4 -26 10
-3 5 -12 7 -20 4 -8 -3 -38 17 -72 48 -32 29 -75 66 -95 82 -21 16 -38 32 -38
37 0 15 26 10 53 -11z"/>
<path d="M1746 3754 c-97 -24 -170 -46 -211 -63 -11 -5 -47 -16 -80 -25 -82
-23 -199 -74 -260 -112 -43 -26 -86 -71 -164 -169 -30 -37 64 43 119 101 44
48 100 88 113 82 1 0 20 8 42 20 46 23 262 96 286 97 9 0 22 5 30 11 21 17 96
41 154 49 50 6 84 19 75 28 -3 3 -50 -6 -104 -19z"/>
<path d="M1630 3329 c-156 -13 -251 -30 -316 -55 -33 -13 -64 -24 -68 -24 -28
0 -109 -47 -121 -71 l-15 -27 30 15 c17 8 28 18 26 22 -3 4 9 6 25 5 18 -1 40
6 57 20 15 12 43 28 62 36 19 7 40 17 45 21 18 14 129 29 248 34 68 3 132 12
150 19 l32 14 -30 0 c-16 0 -73 -4 -125 -9z"/>
<path d="M5490 2940 c0 -8 9 -32 20 -54 10 -23 24 -63 31 -91 6 -27 15 -58 20
-67 5 -9 12 -35 15 -57 4 -23 10 -38 15 -35 5 3 9 -2 9 -11 0 -13 -4 -14 -21
-5 -11 7 -23 9 -26 7 -9 -10 36 -27 53 -20 13 5 16 3 11 -10 -3 -8 -1 -18 6
-20 7 -2 9 -8 4 -12 -4 -5 -14 0 -22 11 -14 19 -14 19 -14 -1 1 -37 13 -55 29
-45 22 14 33 12 26 -5 -3 -9 0 -15 9 -15 8 0 15 -5 15 -11 0 -5 -4 -7 -10 -4
-5 3 -10 1 -10 -4 0 -6 4 -11 9 -11 5 0 19 -26 31 -57 27 -73 61 -143 70 -143
4 0 -3 30 -16 68 -26 76 -29 98 -13 108 14 8 28 -6 34 -34 8 -44 35 -60 35
-21 0 11 5 17 10 14 6 -3 10 2 10 11 0 14 9 9 35 -19 19 -20 35 -45 35 -55 0
-10 4 -22 9 -27 14 -15 25 -79 13 -71 -6 3 -12 0 -14 -6 -4 -11 -53 82 -72
137 -7 18 -8 19 -17 3 -7 -12 -5 -27 6 -48 9 -17 13 -35 10 -40 -3 -6 1 -10
11 -10 11 0 15 -6 11 -19 -3 -11 2 -29 10 -40 13 -19 16 -20 38 -5 14 9 29 12
37 8 9 -6 4 -10 -17 -14 -21 -4 -29 -11 -27 -23 2 -10 -2 -15 -10 -12 -8 3
-22 -1 -32 -8 -18 -13 -17 -15 13 -46 31 -31 35 -42 31 -70 -1 -8 6 -21 16
-28 10 -7 15 -13 11 -13 -11 0 70 -154 96 -180 13 -14 22 -31 19 -38 -2 -6 3
-12 12 -12 9 0 16 -3 16 -7 1 -23 30 -44 50 -38 20 6 20 8 5 31 -8 13 -12 24
-8 24 10 0 46 -60 47 -78 1 -7 8 -17 16 -22 8 -5 12 -11 9 -14 -2 -3 -19 8
-37 25 -45 42 -41 12 5 -35 20 -20 37 -46 38 -57 2 -25 -15 -25 -22 1 -3 10
-37 39 -77 64 -66 42 -99 68 -187 152 -19 19 -40 34 -46 34 -6 0 -14 10 -18
23 -4 12 -8 24 -9 27 -1 3 -16 27 -34 54 -17 27 -36 64 -43 83 -6 18 -15 31
-20 28 -8 -6 -10 1 -14 45 0 9 -10 29 -21 45 -11 17 -51 80 -87 140 -65 107
-99 155 -111 155 -3 0 -3 -8 0 -17 5 -15 4 -16 -5 -3 -6 8 -8 24 -5 35 4 13 2
16 -4 7 -6 -10 -14 -8 -33 9 -24 21 -24 21 -2 15 19 -6 22 -4 16 11 -10 29
-24 43 -37 36 -6 -3 -8 -3 -4 2 4 4 -10 29 -32 55 -38 45 -51 94 -22 83 19 -8
-22 68 -53 97 -35 33 -31 12 6 -33 17 -21 28 -41 25 -44 -9 -9 -30 15 -54 59
-10 21 -23 34 -27 30 -4 -4 -5 3 -2 16 3 15 1 22 -9 22 -8 0 -26 11 -40 25
-36 36 -51 31 -20 -7 15 -18 34 -48 43 -65 9 -18 21 -33 25 -33 5 0 7 -4 4 -8
-3 -5 2 -18 12 -28 27 -31 42 -62 43 -86 0 -13 3 -17 6 -10 3 8 13 -2 25 -25
11 -21 25 -41 31 -44 5 -4 7 -14 4 -23 -4 -9 -2 -16 4 -16 6 0 8 -7 5 -16 -3
-8 -2 -13 3 -9 11 6 61 -51 61 -69 0 -7 8 -21 18 -32 23 -27 54 -73 72 -108 8
-15 25 -32 37 -37 13 -5 33 -29 45 -54 12 -25 25 -45 29 -45 9 0 51 -71 46
-77 -3 -2 -15 12 -27 31 -24 40 -35 46 -27 16 3 -11 2 -20 -2 -20 -12 0 -81
77 -75 83 3 3 -9 4 -26 3 -21 -2 -29 2 -26 11 3 7 1 15 -5 18 -5 4 -7 11 -4
16 4 5 -1 9 -9 9 -9 0 -21 9 -28 20 -7 11 -18 20 -24 20 -7 0 -15 7 -18 16 -5
14 -4 15 9 4 8 -7 15 -8 15 -2 0 10 -24 33 -31 29 -2 -1 1 3 8 9 11 9 10 14
-2 24 -15 13 -19 19 -68 110 -26 50 -26 52 -7 57 25 7 25 18 2 35 -25 18 -73
84 -67 90 3 3 -1 8 -10 11 -19 8 -19 3 0 -32 8 -16 12 -31 9 -34 -7 -6 37
-100 49 -105 4 -2 7 -8 7 -12 0 -5 13 -37 29 -72 17 -35 26 -64 20 -66 -18 -7
-9 -31 33 -84 22 -29 30 -43 16 -30 -46 42 -51 22 -5 -27 61 -66 113 -173 63
-132 -9 7 -18 21 -21 32 -8 24 -75 99 -89 99 -6 0 -1 -7 11 -15 12 -8 40 -45
63 -82 23 -38 54 -80 67 -95 14 -14 24 -29 24 -32 -1 -4 10 -22 24 -40 15 -20
23 -40 19 -50 -5 -12 -2 -15 10 -10 11 4 16 0 16 -14 0 -11 7 -27 15 -36 19
-19 19 -26 -1 -26 -10 0 -6 -8 13 -25 22 -19 23 -24 8 -19 -18 6 -17 4 6 -22
38 -43 61 -83 53 -95 -4 -6 -14 -4 -27 8 -21 18 -21 18 -5 -7 9 -15 23 -24 34
-22 16 2 17 1 4 -8 -12 -8 -13 -12 -2 -19 7 -4 24 -31 37 -60 24 -52 43 -70
29 -28 -4 12 -8 29 -9 37 -1 8 -7 26 -15 40 -8 14 -16 35 -17 48 -3 20 -1 22
16 13 10 -6 44 -34 75 -62 31 -28 56 -46 56 -39 0 6 27 -10 60 -35 33 -25 60
-49 60 -53 0 -4 9 -13 21 -20 18 -12 19 -11 10 7 -15 26 -86 84 -139 111 -28
15 -41 28 -38 36 3 8 -1 14 -8 14 -8 0 -16 7 -20 15 -3 8 -11 14 -17 13 -6 -2
-13 6 -15 17 -1 11 -8 21 -14 23 -5 2 -7 8 -4 14 4 5 -4 5 -16 -2 -17 -9 -25
-9 -34 1 -8 9 -7 11 7 6 20 -7 22 3 5 22 -10 11 -10 13 0 7 8 -5 12 1 12 17 0
25 -22 52 -33 40 -4 -3 -7 -3 -7 2 0 4 7 13 16 19 14 11 14 16 -1 54 -20 49
-14 69 6 23 8 -17 17 -31 20 -31 4 0 10 -15 14 -32 4 -18 9 -36 10 -40 1 -5 3
-17 4 -28 0 -11 6 -20 12 -20 5 0 8 4 5 9 -3 5 1 11 8 14 22 9 40 -20 40 -63
0 -30 5 -41 26 -53 14 -9 43 -32 65 -51 22 -20 50 -39 62 -42 11 -3 23 -14 26
-25 3 -13 14 -19 31 -19 14 0 26 -4 26 -10 0 -5 7 -10 15 -10 7 0 18 -6 22
-14 8 -13 64 -46 79 -46 4 0 -13 18 -37 39 -38 35 -41 39 -19 35 22 -5 21 -3
-8 17 -26 17 -36 19 -42 10 -5 -9 -10 -9 -14 -3 -3 6 0 12 6 14 9 3 4 16 -15
41 -30 40 -47 47 -47 20 0 -14 2 -15 9 -5 6 10 12 7 25 -13 23 -34 13 -44 -16
-17 -13 11 -35 31 -49 44 -14 13 -34 37 -43 53 -16 27 -16 27 -1 8 21 -27 37
-30 29 -5 -5 15 -4 15 10 -2 8 -10 17 -24 19 -30 2 -6 8 -7 13 -3 5 5 -4 20
-21 36 -17 14 -36 39 -43 54 -13 30 -35 29 -26 -1 5 -14 4 -14 -4 -3 -7 10 -7
21 -1 34 10 17 12 17 32 2 12 -8 54 -36 92 -62 39 -26 74 -53 79 -61 17 -29
68 -71 173 -143 40 -27 76 -49 80 -49 5 0 30 -12 57 -26 26 -14 50 -24 52 -21
3 2 -20 23 -51 46 -30 23 -55 39 -55 35 0 -3 -11 1 -25 10 -14 9 -29 15 -34
12 -4 -3 -8 1 -8 9 0 19 2 19 32 -1 14 -9 25 -13 25 -10 0 4 12 -1 28 -10 l27
-16 -24 21 c-13 12 -29 21 -35 21 -7 0 -23 12 -37 26 -13 14 -37 35 -54 47
-28 20 -29 20 -15 2 8 -11 22 -25 30 -32 8 -7 10 -13 4 -13 -5 0 -15 5 -22 12
-6 6 -15 9 -18 5 -4 -4 4 -16 17 -27 l24 -21 -25 15 c-35 22 -76 67 -85 95
l-7 24 33 -23 34 -23 -34 36 c-46 49 -25 47 35 -3 27 -22 67 -49 90 -60 22
-11 65 -43 95 -71 30 -28 77 -69 104 -91 32 -26 42 -39 28 -35 -13 4 -33 10
-45 14 -14 4 -19 2 -14 -5 3 -6 38 -21 77 -33 38 -12 72 -26 75 -30 3 -5 14
-9 24 -9 10 0 36 -9 57 -21 l38 -21 -30 26 c-16 14 -61 42 -100 63 -38 20 -73
40 -76 45 -3 6 -10 9 -15 7 -5 -1 -13 8 -19 20 -5 12 -17 23 -25 26 -26 9
-112 94 -106 104 4 6 -4 20 -18 32 -14 12 -23 25 -21 29 3 4 -5 16 -17 26 -19
17 -21 17 -15 2 8 -23 -6 -23 -24 -1 -10 11 -10 14 -1 9 8 -5 12 -1 12 12 0
13 -7 18 -21 18 -15 -1 -23 6 -25 22 -5 31 -30 57 -37 39 -4 -7 -17 1 -36 23
-38 45 -46 70 -20 70 11 0 16 -5 13 -14 -3 -7 2 -16 10 -19 9 -4 16 -16 16
-27 0 -17 4 -20 20 -15 13 4 22 1 26 -9 3 -9 22 -26 42 -38 21 -12 43 -30 50
-40 7 -10 18 -16 23 -13 5 3 6 0 4 -7 -3 -8 8 -27 25 -43 22 -21 30 -24 30
-13 0 9 -11 23 -25 32 -13 9 -22 22 -19 29 6 15 -31 57 -51 57 -30 0 -110 142
-107 189 1 14 -8 36 -20 49 -18 20 -19 24 -6 19 14 -5 17 -2 15 13 -2 11 -9
26 -17 33 -10 9 -11 9 -6 0 4 -7 2 -13 -3 -13 -10 0 -15 14 -12 33 0 4 -7 7
-17 7 -16 1 -45 35 -103 123 -15 22 -41 51 -59 65 l-33 25 13 -24 c7 -13 18
-31 25 -39 6 -8 15 -23 18 -32 5 -13 2 -15 -11 -11 -12 4 -9 -3 9 -23 15 -16
35 -42 45 -59 18 -29 18 -30 0 -15 -28 22 -76 91 -70 101 2 4 -9 27 -26 50
-35 48 -37 59 -12 59 11 0 7 7 -15 21 -18 12 -30 25 -27 30 3 5 1 9 -3 9 -5 0
-15 17 -22 37 -14 37 -20 47 -53 84 -10 10 -18 23 -18 28 0 5 -7 14 -15 21 -8
7 -15 20 -15 30 0 9 -11 28 -24 42 -12 14 -34 43 -46 64 -13 22 -30 43 -37 47
-7 4 -13 14 -13 21 0 8 -7 19 -15 26 -13 11 -14 10 -9 -6 6 -16 3 -15 -19 5
-30 28 -34 36 -12 27 22 -8 19 21 -5 41 -11 10 -20 23 -20 30 0 7 -9 21 -21
31 -11 9 -25 28 -30 41 -8 19 -12 21 -24 11 -12 -10 -15 -10 -15 2 0 8 -9 23
-20 33 -14 13 -20 14 -20 5z"/>
<path d="M6996 2468 c27 -32 67 -63 76 -60 5 1 7 -2 6 -8 -2 -5 20 -33 47 -62
28 -29 42 -46 32 -39 -9 8 -20 11 -24 7 -3 -3 -4 -7 -2 -9 2 -1 24 -16 48 -32
24 -16 54 -46 66 -66 37 -58 82 -103 90 -89 9 14 29 -7 64 -63 l24 -39 -31 16
c-17 9 -34 22 -38 28 -5 9 -3 9 9 -1 23 -18 22 2 -1 22 -13 12 -21 14 -29 6
-8 -8 -16 -2 -29 20 -10 17 -24 29 -31 27 -7 -3 -20 8 -28 24 -9 17 -19 30
-24 30 -5 0 -12 11 -15 25 -4 14 -13 25 -21 25 -12 0 -14 -7 -9 -26 6 -24 5
-25 -14 -15 -12 6 -24 16 -27 21 -3 5 -16 15 -28 21 -16 8 -13 2 12 -24 19
-20 38 -34 42 -31 5 3 11 -6 15 -20 3 -13 17 -35 31 -48 l26 -23 -14 24 c-34
58 -38 66 -33 71 7 6 59 -56 81 -95 l16 -30 -24 20 c-23 20 -24 20 -9 0 23
-31 63 -72 54 -55 -7 13 -5 13 9 1 9 -7 14 -17 11 -23 -3 -5 14 -30 39 -57 24
-26 48 -57 51 -69 4 -11 20 -27 36 -34 17 -7 30 -17 30 -23 0 -5 25 -32 56
-60 30 -27 78 -71 106 -98 28 -26 53 -46 54 -44 2 1 -41 49 -96 105 -54 56
-94 102 -88 102 5 0 8 7 4 15 -9 24 13 17 44 -12 15 -16 41 -38 57 -50 15 -11
25 -24 22 -28 -4 -3 -28 12 -53 35 -26 22 -52 40 -57 40 -6 0 16 -22 48 -49
32 -26 67 -58 77 -70 21 -23 42 -29 30 -8 -4 6 27 -24 69 -68 42 -44 77 -83
77 -87 0 -16 53 -68 70 -68 10 0 23 -7 30 -15 7 -8 17 -15 22 -15 5 0 -7 19
-26 42 -20 23 -36 46 -36 51 0 4 -6 15 -14 23 -8 7 -23 24 -33 36 -10 13 -26
29 -36 37 -16 13 -16 10 3 -20 11 -19 28 -45 38 -59 16 -24 16 -24 0 -12 -10
8 -33 37 -52 65 -19 29 -60 76 -90 105 -31 29 -56 54 -56 56 0 2 7 7 16 10 8
3 13 2 9 -3 -3 -5 22 -37 54 -71 48 -50 60 -58 64 -43 4 16 5 16 6 1 0 -10 5
-18 11 -18 17 0 110 -102 103 -114 -4 -8 -2 -7 6 0 10 9 8 20 -7 48 -11 20
-23 37 -26 37 -18 -2 -20 0 -6 10 13 9 13 10 -2 6 -18 -6 -56 29 -44 40 4 4
11 2 15 -6 12 -18 21 10 14 40 -5 18 -3 21 10 16 10 -4 17 -2 17 4 0 7 -10 9
-23 5 -19 -4 -26 0 -36 20 -10 23 -9 26 4 21 8 -4 15 -2 15 3 0 6 -4 11 -10
11 -5 1 -15 2 -20 3 -11 1 -30 25 -30 39 0 5 6 5 13 2 6 -4 -5 8 -26 26 -36
30 -87 122 -87 155 0 8 -4 14 -10 14 -5 0 -10 -7 -10 -15 0 -17 -36 -20 -74
-5 -20 7 -26 17 -26 39 0 21 -4 29 -13 25 -11 -4 -70 73 -86 111 -2 6 -11 18
-19 28 -12 13 -13 20 -5 25 9 6 5 16 -11 36 l-23 29 1 -34 c1 -19 12 -49 24
-66 24 -34 29 -51 10 -35 -7 6 -17 10 -23 10 -5 0 -14 9 -20 21 -9 19 -25 29
-25 16 0 -12 53 -85 62 -85 5 0 7 -4 4 -9 -4 -5 -1 -11 6 -13 6 -2 12 -14 13
-26 2 -26 1 -26 -17 -9 -7 6 -32 29 -55 49 -24 21 -38 40 -32 44 6 3 17 -2 25
-12 11 -13 14 -14 11 -4 -2 8 -13 20 -26 25 -15 7 -20 16 -17 29 5 19 -24 70
-54 93 -8 7 -11 13 -7 13 5 0 2 7 -6 15 -9 8 -17 20 -20 27 -2 7 -7 10 -11 6
-11 -9 36 -87 57 -94 13 -4 16 -12 11 -26 -3 -11 -2 -18 2 -15 5 3 9 -5 9 -18
0 -13 -3 -21 -7 -19 -3 2 -8 -2 -11 -8 -2 -7 -19 8 -37 35 -19 26 -38 47 -42
47 -5 0 -13 11 -18 25 -5 14 -23 33 -40 44 -17 10 -32 23 -33 27 -1 5 -5 8 -9
7 -4 -2 -13 7 -19 19 -20 38 -47 61 -61 52 -7 -4 -10 -3 -5 1 9 10 -22 47 -34
39 -5 -3 -9 2 -9 10 0 9 -7 16 -17 16 -14 0 -14 -3 3 -22z"/>
<path d="M6487 1729 c-23 -27 -17 -55 27 -117 18 -26 36 -56 40 -66 6 -17 5
-17 -11 -5 -10 8 -25 22 -33 32 -13 16 -17 16 -35 3 -19 -14 -19 -15 -1 -35
11 -12 25 -21 31 -21 7 0 15 -7 19 -15 3 -8 14 -15 25 -15 25 0 44 -34 36 -60
-8 -25 8 -26 35 -2 29 25 38 23 110 -25 97 -64 97 -25 -1 67 -3 3 -12 16 -21
29 -9 13 -56 63 -103 112 -48 48 -84 92 -81 97 3 5 0 17 -7 26 -11 15 -14 15
-30 -5z"/>
</g>
</svg>
